%
M48
M72
T01C0.0320
T02C0.0394
T03C0.0400
T04C0.0440
T05C0.0470
T06C0.0472
T07C0.0520
T08C0.0551
T09C0.1620
%
T01
X1812Y4681
X5812Y4681
X7312Y4681
X8312Y4681
X8312Y8181
X6312Y8181
X6312Y10681
X8312Y10681
X16812Y10181
X19312Y9181
X20312Y9181
X21312Y9181
X22312Y9181
X22312Y12181
X21312Y12181
X20312Y12181
X19312Y12181
X16812Y12181
X24562Y14181
X28562Y14181
X30312Y16181
X29312Y17181
X31312Y17181
X48312Y14931
X52312Y14931
X9812Y21431
X7812Y21431
X7812Y23431
X9812Y23431
X8812Y18931
X4812Y18931
X3312Y18931
X2312Y18931
X2312Y29931
X3312Y29931
X4812Y29931
X8812Y29931
T02
X42312Y28681
X45312Y28681
X48312Y28681
X47312Y33181
X46312Y33181
X45312Y33181
X44312Y33181
X43312Y33181
X43312Y36681
X44312Y36681
X45312Y36681
X46312Y36681
X47312Y36681
T03
X13812Y23431
X13812Y22431
X13812Y21431
T04
X11312Y26431
X1312Y26431
T05
X28787Y27166
X31828Y30207
X31812Y4431
X33812Y4431
X26812Y4431
X24812Y4431
X22812Y4431
T06
X39891Y5181
X41860Y5181
X43828Y5181
X45797Y5181
X47765Y5181
X49734Y5181
X49734Y3213
X47765Y3213
X45797Y3213
X43828Y3213
X41860Y3213
X39891Y3213
T07
X9812Y15181
X6812Y15181
X6812Y33431
X9812Y33431
T08
X4297Y33431
X2328Y33431
X2328Y36431
X4297Y36431
X4297Y15181
X2328Y15181
X52828Y28681
X54797Y28681
X54797Y33181
X52828Y33181
T09
X34020Y24974
X25605Y33389
M30
