G75*
G70*
%OFA0B0*%
%FSLAX24Y24*%
%IPPOS*%
%LPD*%
%AMOC8*
5,1,8,0,0,1.08239X$1,22.5*
%
%ADD10C,0.0000*%
%ADD11C,0.0060*%
%ADD12C,0.0050*%
%ADD13C,0.0070*%
%ADD14C,0.0120*%
%ADD15R,0.0200X0.1200*%
%ADD16R,0.0350X0.0300*%
%ADD17R,0.0200X0.0800*%
%ADD18C,0.0100*%
%ADD19C,0.0200*%
%ADD20R,0.0500X0.0750*%
%ADD21R,0.0300X0.0700*%
%ADD22R,0.0500X0.0300*%
%ADD23C,0.0020*%
%ADD24C,0.0080*%
%ADD25C,0.0030*%
%ADD26C,0.0040*%
%ADD27R,0.1800X0.1000*%
%ADD28R,0.1000X0.1800*%
D10*
X000312Y000181D02*
X000312Y039551D01*
X057055Y039551D01*
X057055Y000181D01*
X000312Y000181D01*
D11*
X002212Y004081D02*
X002462Y004081D01*
X002512Y004131D01*
X005112Y004131D01*
X005162Y004081D01*
X005412Y004081D01*
X005429Y004083D01*
X005446Y004087D01*
X005462Y004094D01*
X005476Y004104D01*
X005489Y004117D01*
X005499Y004131D01*
X005506Y004147D01*
X005510Y004164D01*
X005512Y004181D01*
X005512Y005181D02*
X005510Y005198D01*
X005506Y005215D01*
X005499Y005231D01*
X005489Y005245D01*
X005476Y005258D01*
X005462Y005268D01*
X005446Y005275D01*
X005429Y005279D01*
X005412Y005281D01*
X005162Y005281D01*
X005112Y005231D01*
X002512Y005231D01*
X002462Y005281D01*
X002212Y005281D01*
X002195Y005279D01*
X002178Y005275D01*
X002162Y005268D01*
X002148Y005258D01*
X002135Y005245D01*
X002125Y005231D01*
X002118Y005215D01*
X002114Y005198D01*
X002112Y005181D01*
X002112Y004181D02*
X002114Y004164D01*
X002118Y004147D01*
X002125Y004131D01*
X002135Y004117D01*
X002148Y004104D01*
X002162Y004094D01*
X002178Y004087D01*
X002195Y004083D01*
X002212Y004081D01*
X007338Y004313D02*
X007368Y004278D01*
X007399Y004245D01*
X007434Y004215D01*
X007470Y004188D01*
X007508Y004164D01*
X007548Y004142D01*
X007590Y004124D01*
X007633Y004108D01*
X007677Y004096D01*
X007721Y004088D01*
X007767Y004083D01*
X007812Y004081D01*
X007857Y004083D01*
X007903Y004088D01*
X007947Y004096D01*
X007991Y004108D01*
X008034Y004124D01*
X008076Y004142D01*
X008116Y004164D01*
X008154Y004188D01*
X008190Y004215D01*
X008225Y004245D01*
X008256Y004278D01*
X008286Y004313D01*
X007812Y005281D02*
X007766Y005279D01*
X007720Y005274D01*
X007674Y005265D01*
X007629Y005253D01*
X007586Y005237D01*
X007544Y005218D01*
X007503Y005195D01*
X007464Y005170D01*
X007428Y005142D01*
X007393Y005111D01*
X007361Y005077D01*
X007332Y005041D01*
X007812Y005281D02*
X007859Y005279D01*
X007907Y005273D01*
X007953Y005264D01*
X007999Y005251D01*
X008043Y005235D01*
X008087Y005215D01*
X008128Y005191D01*
X008167Y005165D01*
X008204Y005135D01*
X008239Y005102D01*
X008271Y005067D01*
X008300Y005030D01*
X007962Y007731D02*
X006662Y007731D01*
X006636Y007733D01*
X006610Y007738D01*
X006585Y007746D01*
X006562Y007758D01*
X006540Y007772D01*
X006521Y007790D01*
X006503Y007809D01*
X006489Y007831D01*
X006477Y007854D01*
X006469Y007879D01*
X006464Y007905D01*
X006462Y007931D01*
X006812Y008181D02*
X007192Y008181D01*
X007442Y008181D02*
X007812Y008181D01*
X008162Y007931D02*
X008160Y007905D01*
X008155Y007879D01*
X008147Y007854D01*
X008135Y007831D01*
X008121Y007809D01*
X008103Y007790D01*
X008084Y007772D01*
X008062Y007758D01*
X008039Y007746D01*
X008014Y007738D01*
X007988Y007733D01*
X007962Y007731D01*
X008162Y008431D02*
X008160Y008457D01*
X008155Y008483D01*
X008147Y008508D01*
X008135Y008531D01*
X008121Y008553D01*
X008103Y008572D01*
X008084Y008590D01*
X008062Y008604D01*
X008039Y008616D01*
X008014Y008624D01*
X007988Y008629D01*
X007962Y008631D01*
X006662Y008631D01*
X006636Y008629D01*
X006610Y008624D01*
X006585Y008616D01*
X006562Y008604D01*
X006540Y008590D01*
X006521Y008572D01*
X006503Y008553D01*
X006489Y008531D01*
X006477Y008508D01*
X006469Y008483D01*
X006464Y008457D01*
X006462Y008431D01*
X007012Y010281D02*
X007212Y010281D01*
X007212Y011081D01*
X007012Y011081D01*
X007012Y010681D01*
X007012Y010281D01*
X007012Y010681D02*
X006762Y010681D01*
X006812Y010831D02*
X006812Y011031D01*
X006712Y010931D02*
X006912Y010931D01*
X006463Y010152D02*
X006497Y010101D01*
X006534Y010052D01*
X006575Y010006D01*
X006617Y009962D01*
X006663Y009920D01*
X006711Y009882D01*
X006761Y009846D01*
X006813Y009814D01*
X006867Y009785D01*
X006923Y009760D01*
X006981Y009738D01*
X007039Y009719D01*
X007099Y009704D01*
X007159Y009693D01*
X007220Y009685D01*
X007281Y009681D01*
X007343Y009681D01*
X007404Y009685D01*
X007465Y009693D01*
X007525Y009704D01*
X007585Y009719D01*
X007643Y009738D01*
X007701Y009760D01*
X007757Y009785D01*
X007811Y009814D01*
X007863Y009846D01*
X007913Y009882D01*
X007961Y009920D01*
X008007Y009962D01*
X008049Y010006D01*
X008090Y010052D01*
X008127Y010101D01*
X008161Y010152D01*
X007862Y010681D02*
X007562Y010681D01*
X008161Y011210D02*
X008127Y011261D01*
X008090Y011310D01*
X008049Y011356D01*
X008007Y011400D01*
X007961Y011442D01*
X007913Y011480D01*
X007863Y011516D01*
X007811Y011548D01*
X007757Y011577D01*
X007701Y011602D01*
X007643Y011624D01*
X007585Y011643D01*
X007525Y011658D01*
X007465Y011669D01*
X007404Y011677D01*
X007343Y011681D01*
X007281Y011681D01*
X007220Y011677D01*
X007159Y011669D01*
X007099Y011658D01*
X007039Y011643D01*
X006981Y011624D01*
X006923Y011602D01*
X006867Y011577D01*
X006813Y011548D01*
X006761Y011516D01*
X006711Y011480D01*
X006663Y011442D01*
X006617Y011400D01*
X006575Y011356D01*
X006534Y011310D01*
X006497Y011261D01*
X006463Y011210D01*
X006412Y013731D02*
X006792Y013731D01*
X006412Y013731D02*
X006395Y013733D01*
X006378Y013737D01*
X006362Y013744D01*
X006348Y013754D01*
X006335Y013767D01*
X006325Y013781D01*
X006318Y013797D01*
X006314Y013814D01*
X006312Y013831D01*
X006312Y014622D01*
X006312Y015740D02*
X006312Y016531D01*
X006314Y016548D01*
X006318Y016565D01*
X006325Y016581D01*
X006335Y016595D01*
X006348Y016608D01*
X006362Y016618D01*
X006378Y016625D01*
X006395Y016629D01*
X006412Y016631D01*
X006792Y016631D01*
X008012Y016188D02*
X008012Y014175D01*
X008612Y014175D02*
X008612Y016188D01*
X010208Y014544D02*
X010174Y014452D01*
X010137Y014362D01*
X010094Y014274D01*
X010048Y014188D01*
X009997Y014104D01*
X009943Y014023D01*
X009884Y013945D01*
X009822Y013869D01*
X009756Y013797D01*
X009687Y013728D01*
X009614Y013663D01*
X009538Y013601D01*
X009460Y013543D01*
X009378Y013489D01*
X009294Y013439D01*
X009208Y013393D01*
X009119Y013351D01*
X009029Y013314D01*
X008937Y013281D01*
X008843Y013253D01*
X008748Y013229D01*
X008653Y013210D01*
X008556Y013196D01*
X008459Y013186D01*
X008361Y013182D01*
X008263Y013182D01*
X008165Y013186D01*
X008068Y013196D01*
X007971Y013210D01*
X007876Y013229D01*
X007781Y013253D01*
X007687Y013281D01*
X007595Y013314D01*
X007505Y013351D01*
X007416Y013393D01*
X007330Y013439D01*
X007246Y013489D01*
X007164Y013543D01*
X007086Y013601D01*
X007010Y013663D01*
X006937Y013728D01*
X006868Y013797D01*
X006802Y013869D01*
X006740Y013945D01*
X006681Y014023D01*
X006627Y014104D01*
X006576Y014188D01*
X006530Y014274D01*
X006487Y014362D01*
X006450Y014452D01*
X006416Y014544D01*
X006792Y013731D02*
X006864Y013659D01*
X006939Y013591D01*
X007017Y013526D01*
X007099Y013466D01*
X007183Y013409D01*
X007270Y013357D01*
X007359Y013308D01*
X007451Y013265D01*
X007544Y013225D01*
X007640Y013190D01*
X007737Y013160D01*
X007835Y013135D01*
X007934Y013114D01*
X008034Y013098D01*
X008135Y013087D01*
X008237Y013081D01*
X008338Y013080D01*
X008440Y013084D01*
X008541Y013092D01*
X008641Y013106D01*
X008741Y013124D01*
X008840Y013147D01*
X008938Y013175D01*
X009034Y013208D01*
X009128Y013245D01*
X009221Y013287D01*
X009311Y013333D01*
X009399Y013383D01*
X009485Y013438D01*
X009568Y013497D01*
X009648Y013559D01*
X009724Y013626D01*
X009798Y013696D01*
X009868Y013769D01*
X009934Y013846D01*
X009997Y013926D01*
X010055Y014009D01*
X010110Y014094D01*
X010160Y014182D01*
X010207Y014273D01*
X010248Y014365D01*
X010285Y014460D01*
X010318Y014556D01*
X010346Y014654D01*
X010016Y014459D02*
X009979Y014377D01*
X009938Y014297D01*
X009893Y014218D01*
X009844Y014143D01*
X009792Y014069D01*
X009736Y013998D01*
X009677Y013930D01*
X009614Y013865D01*
X009548Y013803D01*
X009480Y013745D01*
X009408Y013690D01*
X009334Y013638D01*
X009258Y013590D01*
X009179Y013546D01*
X009098Y013505D01*
X009016Y013469D01*
X008932Y013437D01*
X008846Y013409D01*
X008759Y013385D01*
X008671Y013365D01*
X008582Y013350D01*
X008492Y013339D01*
X008402Y013332D01*
X008312Y013330D01*
X008222Y013332D01*
X008132Y013339D01*
X008042Y013350D01*
X007953Y013365D01*
X007865Y013385D01*
X007778Y013409D01*
X007692Y013437D01*
X007608Y013469D01*
X007526Y013505D01*
X007445Y013546D01*
X007366Y013590D01*
X007290Y013638D01*
X007216Y013690D01*
X007144Y013745D01*
X007076Y013803D01*
X007010Y013865D01*
X006947Y013930D01*
X006888Y013998D01*
X006832Y014069D01*
X006780Y014143D01*
X006731Y014218D01*
X006686Y014297D01*
X006645Y014377D01*
X006608Y014459D01*
X006792Y016631D02*
X006864Y016703D01*
X006939Y016771D01*
X007017Y016836D01*
X007099Y016896D01*
X007183Y016953D01*
X007270Y017005D01*
X007359Y017054D01*
X007451Y017097D01*
X007544Y017137D01*
X007640Y017172D01*
X007737Y017202D01*
X007835Y017227D01*
X007934Y017248D01*
X008034Y017264D01*
X008135Y017275D01*
X008237Y017281D01*
X008338Y017282D01*
X008440Y017278D01*
X008541Y017270D01*
X008641Y017256D01*
X008741Y017238D01*
X008840Y017215D01*
X008938Y017187D01*
X009034Y017154D01*
X009128Y017117D01*
X009221Y017075D01*
X009311Y017029D01*
X009399Y016979D01*
X009485Y016924D01*
X009568Y016865D01*
X009648Y016803D01*
X009724Y016736D01*
X009798Y016666D01*
X009868Y016593D01*
X009934Y016516D01*
X009997Y016436D01*
X010055Y016353D01*
X010110Y016268D01*
X010160Y016180D01*
X010207Y016089D01*
X010248Y015997D01*
X010285Y015902D01*
X010318Y015806D01*
X010346Y015708D01*
X009242Y014694D02*
X009211Y014638D01*
X009176Y014585D01*
X009139Y014534D01*
X009098Y014485D01*
X009055Y014439D01*
X009009Y014395D01*
X008960Y014355D01*
X008909Y014317D01*
X008855Y014283D01*
X008800Y014251D01*
X008743Y014224D01*
X008685Y014199D01*
X008625Y014179D01*
X008563Y014162D01*
X008501Y014148D01*
X008439Y014139D01*
X008375Y014133D01*
X008312Y014131D01*
X008249Y014133D01*
X008185Y014139D01*
X008123Y014148D01*
X008061Y014162D01*
X007999Y014179D01*
X007939Y014199D01*
X007881Y014224D01*
X007824Y014251D01*
X007769Y014283D01*
X007715Y014317D01*
X007664Y014355D01*
X007615Y014395D01*
X007569Y014439D01*
X007526Y014485D01*
X007485Y014534D01*
X007448Y014585D01*
X007413Y014638D01*
X007382Y014694D01*
X007382Y015668D02*
X007413Y015724D01*
X007448Y015777D01*
X007485Y015828D01*
X007526Y015877D01*
X007569Y015923D01*
X007615Y015967D01*
X007664Y016007D01*
X007715Y016045D01*
X007769Y016079D01*
X007824Y016111D01*
X007881Y016138D01*
X007939Y016163D01*
X007999Y016183D01*
X008061Y016200D01*
X008123Y016214D01*
X008185Y016223D01*
X008249Y016229D01*
X008312Y016231D01*
X008375Y016229D01*
X008439Y016223D01*
X008501Y016214D01*
X008563Y016200D01*
X008625Y016183D01*
X008685Y016163D01*
X008743Y016138D01*
X008800Y016111D01*
X008855Y016079D01*
X008909Y016045D01*
X008960Y016007D01*
X009009Y015967D01*
X009055Y015923D01*
X009098Y015877D01*
X009139Y015828D01*
X009176Y015777D01*
X009211Y015724D01*
X009242Y015668D01*
X010016Y015903D02*
X009979Y015985D01*
X009938Y016065D01*
X009893Y016144D01*
X009844Y016219D01*
X009792Y016293D01*
X009736Y016364D01*
X009677Y016432D01*
X009614Y016497D01*
X009548Y016559D01*
X009480Y016617D01*
X009408Y016672D01*
X009334Y016724D01*
X009258Y016772D01*
X009179Y016816D01*
X009098Y016857D01*
X009016Y016893D01*
X008932Y016925D01*
X008846Y016953D01*
X008759Y016977D01*
X008671Y016997D01*
X008582Y017012D01*
X008492Y017023D01*
X008402Y017030D01*
X008312Y017032D01*
X008222Y017030D01*
X008132Y017023D01*
X008042Y017012D01*
X007953Y016997D01*
X007865Y016977D01*
X007778Y016953D01*
X007692Y016925D01*
X007608Y016893D01*
X007526Y016857D01*
X007445Y016816D01*
X007366Y016772D01*
X007290Y016724D01*
X007216Y016672D01*
X007144Y016617D01*
X007076Y016559D01*
X007010Y016497D01*
X006947Y016432D01*
X006888Y016364D01*
X006832Y016293D01*
X006780Y016219D01*
X006731Y016144D01*
X006686Y016065D01*
X006645Y015985D01*
X006608Y015903D01*
X006416Y015818D02*
X006450Y015910D01*
X006487Y016000D01*
X006530Y016088D01*
X006576Y016174D01*
X006627Y016258D01*
X006681Y016339D01*
X006740Y016417D01*
X006802Y016493D01*
X006868Y016565D01*
X006937Y016634D01*
X007010Y016699D01*
X007086Y016761D01*
X007164Y016819D01*
X007246Y016873D01*
X007330Y016923D01*
X007416Y016969D01*
X007505Y017011D01*
X007595Y017048D01*
X007687Y017081D01*
X007781Y017109D01*
X007876Y017133D01*
X007971Y017152D01*
X008068Y017166D01*
X008165Y017176D01*
X008263Y017180D01*
X008361Y017180D01*
X008459Y017176D01*
X008556Y017166D01*
X008653Y017152D01*
X008748Y017133D01*
X008843Y017109D01*
X008937Y017081D01*
X009029Y017048D01*
X009119Y017011D01*
X009208Y016969D01*
X009294Y016923D01*
X009378Y016873D01*
X009460Y016819D01*
X009538Y016761D01*
X009614Y016699D01*
X009687Y016634D01*
X009756Y016565D01*
X009822Y016493D01*
X009884Y016417D01*
X009943Y016339D01*
X009997Y016258D01*
X010048Y016174D01*
X010094Y016088D01*
X010137Y016000D01*
X010174Y015910D01*
X010208Y015818D01*
X008412Y018331D02*
X008162Y018331D01*
X008112Y018381D01*
X005512Y018381D01*
X005462Y018331D01*
X005212Y018331D01*
X005195Y018333D01*
X005178Y018337D01*
X005162Y018344D01*
X005148Y018354D01*
X005135Y018367D01*
X005125Y018381D01*
X005118Y018397D01*
X005114Y018414D01*
X005112Y018431D01*
X005112Y019431D02*
X005114Y019448D01*
X005118Y019465D01*
X005125Y019481D01*
X005135Y019495D01*
X005148Y019508D01*
X005162Y019518D01*
X005178Y019525D01*
X005195Y019529D01*
X005212Y019531D01*
X005462Y019531D01*
X005512Y019481D01*
X008112Y019481D01*
X008162Y019531D01*
X008412Y019531D01*
X008429Y019529D01*
X008446Y019525D01*
X008462Y019518D01*
X008476Y019508D01*
X008489Y019495D01*
X008499Y019481D01*
X008506Y019465D01*
X008510Y019448D01*
X008512Y019431D01*
X008512Y018431D02*
X008510Y018414D01*
X008506Y018397D01*
X008499Y018381D01*
X008489Y018367D01*
X008476Y018354D01*
X008462Y018344D01*
X008446Y018337D01*
X008429Y018333D01*
X008412Y018331D01*
X008162Y020981D02*
X009462Y020981D01*
X009488Y020983D01*
X009514Y020988D01*
X009539Y020996D01*
X009562Y021008D01*
X009584Y021022D01*
X009603Y021040D01*
X009621Y021059D01*
X009635Y021081D01*
X009647Y021104D01*
X009655Y021129D01*
X009660Y021155D01*
X009662Y021181D01*
X009312Y021431D02*
X008932Y021431D01*
X008682Y021431D02*
X008312Y021431D01*
X007962Y021181D02*
X007964Y021155D01*
X007969Y021129D01*
X007977Y021104D01*
X007989Y021081D01*
X008003Y021059D01*
X008021Y021040D01*
X008040Y021022D01*
X008062Y021008D01*
X008085Y020996D01*
X008110Y020988D01*
X008136Y020983D01*
X008162Y020981D01*
X007962Y021681D02*
X007964Y021707D01*
X007969Y021733D01*
X007977Y021758D01*
X007989Y021781D01*
X008003Y021803D01*
X008021Y021822D01*
X008040Y021840D01*
X008062Y021854D01*
X008085Y021866D01*
X008110Y021874D01*
X008136Y021879D01*
X008162Y021881D01*
X009462Y021881D01*
X009488Y021879D01*
X009514Y021874D01*
X009539Y021866D01*
X009562Y021854D01*
X009584Y021840D01*
X009603Y021822D01*
X009621Y021803D01*
X009635Y021781D01*
X009647Y021758D01*
X009655Y021733D01*
X009660Y021707D01*
X009662Y021681D01*
X009462Y022981D02*
X008162Y022981D01*
X008136Y022983D01*
X008110Y022988D01*
X008085Y022996D01*
X008062Y023008D01*
X008040Y023022D01*
X008021Y023040D01*
X008003Y023059D01*
X007989Y023081D01*
X007977Y023104D01*
X007969Y023129D01*
X007964Y023155D01*
X007962Y023181D01*
X008312Y023431D02*
X008682Y023431D01*
X008932Y023431D02*
X009312Y023431D01*
X009662Y023181D02*
X009660Y023155D01*
X009655Y023129D01*
X009647Y023104D01*
X009635Y023081D01*
X009621Y023059D01*
X009603Y023040D01*
X009584Y023022D01*
X009562Y023008D01*
X009539Y022996D01*
X009514Y022988D01*
X009488Y022983D01*
X009462Y022981D01*
X009662Y023681D02*
X009660Y023707D01*
X009655Y023733D01*
X009647Y023758D01*
X009635Y023781D01*
X009621Y023803D01*
X009603Y023822D01*
X009584Y023840D01*
X009562Y023854D01*
X009539Y023866D01*
X009514Y023874D01*
X009488Y023879D01*
X009462Y023881D01*
X008162Y023881D01*
X008136Y023879D01*
X008110Y023874D01*
X008085Y023866D01*
X008062Y023854D01*
X008040Y023840D01*
X008021Y023822D01*
X008003Y023803D01*
X007989Y023781D01*
X007977Y023758D01*
X007969Y023733D01*
X007964Y023707D01*
X007962Y023681D01*
X009362Y024681D02*
X009462Y024781D01*
X009762Y024781D01*
X010312Y024781D01*
X010312Y028081D01*
X010262Y028131D01*
X009812Y028131D01*
X009762Y028081D01*
X009462Y028081D01*
X009412Y028131D01*
X002362Y028131D01*
X002312Y028081D01*
X002312Y024781D01*
X009462Y024781D01*
X009462Y024881D01*
X009462Y028031D01*
X009462Y028061D01*
X009762Y028061D01*
X009762Y028031D01*
X009462Y028031D01*
X009462Y028061D02*
X009462Y028081D01*
X009412Y028131D02*
X009362Y028181D01*
X009362Y028161D01*
X002412Y028161D01*
X002412Y028181D02*
X002362Y028131D01*
X002412Y028181D02*
X009362Y028181D01*
X009762Y028081D02*
X009762Y028061D01*
X009762Y028031D02*
X009762Y024881D01*
X009462Y024881D01*
X009362Y024681D02*
X002412Y024681D01*
X002312Y024781D01*
X002512Y026431D02*
X008262Y026431D01*
X008812Y026431D02*
X008812Y025831D01*
X008612Y025831D01*
X008612Y027031D01*
X008812Y027031D01*
X008812Y026431D01*
X009262Y026431D01*
X009112Y026231D02*
X009112Y025931D01*
X009262Y026081D02*
X008962Y026081D01*
X009762Y024881D02*
X009762Y024781D01*
X009862Y024681D01*
X010212Y024681D01*
X010312Y024781D01*
X013112Y024331D02*
X013212Y024431D01*
X014362Y024431D01*
X013112Y024331D02*
X013112Y020531D01*
X013212Y020431D01*
X014362Y020431D01*
X020962Y023481D02*
X022912Y023481D01*
X022979Y023479D01*
X023046Y023473D01*
X023113Y023464D01*
X023179Y023451D01*
X023244Y023434D01*
X023308Y023414D01*
X023371Y023390D01*
X023433Y023362D01*
X023492Y023331D01*
X023550Y023297D01*
X023606Y023260D01*
X023660Y023219D01*
X023712Y023176D01*
X023761Y023130D01*
X023807Y023081D01*
X023850Y023029D01*
X023891Y022975D01*
X023928Y022919D01*
X023962Y022861D01*
X023993Y022802D01*
X024021Y022740D01*
X024045Y022677D01*
X024065Y022613D01*
X024082Y022548D01*
X024095Y022482D01*
X024104Y022415D01*
X024110Y022348D01*
X024112Y022281D01*
X024112Y020331D01*
X025912Y020331D02*
X025912Y022581D01*
X025914Y022615D01*
X025920Y022648D01*
X025929Y022680D01*
X025942Y022711D01*
X025958Y022741D01*
X025977Y022768D01*
X026000Y022793D01*
X026025Y022816D01*
X026052Y022835D01*
X026082Y022851D01*
X026113Y022864D01*
X026145Y022873D01*
X026178Y022879D01*
X026212Y022881D01*
X026246Y022879D01*
X026279Y022873D01*
X026311Y022864D01*
X026342Y022851D01*
X026372Y022835D01*
X026399Y022816D01*
X026424Y022793D01*
X026447Y022768D01*
X026466Y022741D01*
X026482Y022711D01*
X026495Y022680D01*
X026504Y022648D01*
X026510Y022615D01*
X026512Y022581D01*
X026512Y021331D01*
X028312Y021331D02*
X028312Y022581D01*
X028314Y022615D01*
X028320Y022648D01*
X028329Y022680D01*
X028342Y022711D01*
X028358Y022741D01*
X028377Y022768D01*
X028400Y022793D01*
X028425Y022816D01*
X028452Y022835D01*
X028482Y022851D01*
X028513Y022864D01*
X028545Y022873D01*
X028578Y022879D01*
X028612Y022881D01*
X028646Y022879D01*
X028679Y022873D01*
X028711Y022864D01*
X028742Y022851D01*
X028772Y022835D01*
X028799Y022816D01*
X028824Y022793D01*
X028847Y022768D01*
X028866Y022741D01*
X028882Y022711D01*
X028895Y022680D01*
X028904Y022648D01*
X028910Y022615D01*
X028912Y022581D01*
X028912Y020331D01*
X030712Y020331D02*
X030712Y022581D01*
X030714Y022615D01*
X030720Y022648D01*
X030729Y022680D01*
X030742Y022711D01*
X030758Y022741D01*
X030777Y022768D01*
X030800Y022793D01*
X030825Y022816D01*
X030852Y022835D01*
X030882Y022851D01*
X030913Y022864D01*
X030945Y022873D01*
X030978Y022879D01*
X031012Y022881D01*
X031046Y022879D01*
X031079Y022873D01*
X031111Y022864D01*
X031142Y022851D01*
X031172Y022835D01*
X031199Y022816D01*
X031224Y022793D01*
X031247Y022768D01*
X031266Y022741D01*
X031282Y022711D01*
X031295Y022680D01*
X031304Y022648D01*
X031310Y022615D01*
X031312Y022581D01*
X031312Y021331D01*
X033112Y021331D02*
X033112Y022581D01*
X033114Y022615D01*
X033120Y022648D01*
X033129Y022680D01*
X033142Y022711D01*
X033158Y022741D01*
X033177Y022768D01*
X033200Y022793D01*
X033225Y022816D01*
X033252Y022835D01*
X033282Y022851D01*
X033313Y022864D01*
X033345Y022873D01*
X033378Y022879D01*
X033412Y022881D01*
X033446Y022879D01*
X033479Y022873D01*
X033511Y022864D01*
X033542Y022851D01*
X033572Y022835D01*
X033599Y022816D01*
X033624Y022793D01*
X033647Y022768D01*
X033666Y022741D01*
X033682Y022711D01*
X033695Y022680D01*
X033704Y022648D01*
X033710Y022615D01*
X033712Y022581D01*
X033712Y020331D01*
X035512Y020331D02*
X035512Y022281D01*
X035514Y022348D01*
X035520Y022415D01*
X035529Y022482D01*
X035542Y022548D01*
X035559Y022613D01*
X035579Y022677D01*
X035603Y022740D01*
X035631Y022802D01*
X035662Y022861D01*
X035696Y022919D01*
X035733Y022975D01*
X035774Y023029D01*
X035817Y023081D01*
X035863Y023130D01*
X035912Y023176D01*
X035964Y023219D01*
X036018Y023260D01*
X036074Y023297D01*
X036132Y023331D01*
X036191Y023362D01*
X036253Y023390D01*
X036316Y023414D01*
X036380Y023434D01*
X036445Y023451D01*
X036511Y023464D01*
X036578Y023473D01*
X036645Y023479D01*
X036712Y023481D01*
X038662Y023481D01*
X038662Y025281D02*
X036412Y025281D01*
X036378Y025283D01*
X036345Y025289D01*
X036313Y025298D01*
X036282Y025311D01*
X036252Y025327D01*
X036225Y025346D01*
X036200Y025369D01*
X036177Y025394D01*
X036158Y025421D01*
X036142Y025451D01*
X036129Y025482D01*
X036120Y025514D01*
X036114Y025547D01*
X036112Y025581D01*
X036114Y025615D01*
X036120Y025648D01*
X036129Y025680D01*
X036142Y025711D01*
X036158Y025741D01*
X036177Y025768D01*
X036200Y025793D01*
X036225Y025816D01*
X036252Y025835D01*
X036282Y025851D01*
X036313Y025864D01*
X036345Y025873D01*
X036378Y025879D01*
X036412Y025881D01*
X037662Y025881D01*
X035894Y025660D02*
X034592Y030652D01*
X036412Y030681D02*
X037662Y030681D01*
X038662Y030081D02*
X036412Y030081D01*
X036378Y030083D01*
X036345Y030089D01*
X036313Y030098D01*
X036282Y030111D01*
X036252Y030127D01*
X036225Y030146D01*
X036200Y030169D01*
X036177Y030194D01*
X036158Y030221D01*
X036142Y030251D01*
X036129Y030282D01*
X036120Y030314D01*
X036114Y030347D01*
X036112Y030381D01*
X036114Y030415D01*
X036120Y030448D01*
X036129Y030480D01*
X036142Y030511D01*
X036158Y030541D01*
X036177Y030568D01*
X036200Y030593D01*
X036225Y030616D01*
X036252Y030635D01*
X036282Y030651D01*
X036313Y030664D01*
X036345Y030673D01*
X036378Y030679D01*
X036412Y030681D01*
X036412Y032481D02*
X037662Y032481D01*
X038662Y033081D02*
X036412Y033081D01*
X036378Y033079D01*
X036345Y033073D01*
X036313Y033064D01*
X036282Y033051D01*
X036252Y033035D01*
X036225Y033016D01*
X036200Y032993D01*
X036177Y032968D01*
X036158Y032941D01*
X036142Y032911D01*
X036129Y032880D01*
X036120Y032848D01*
X036114Y032815D01*
X036112Y032781D01*
X036114Y032747D01*
X036120Y032714D01*
X036129Y032682D01*
X036142Y032651D01*
X036158Y032621D01*
X036177Y032594D01*
X036200Y032569D01*
X036225Y032546D01*
X036252Y032527D01*
X036282Y032511D01*
X036313Y032498D01*
X036345Y032489D01*
X036378Y032483D01*
X036412Y032481D01*
X036712Y034881D02*
X038662Y034881D01*
X036712Y034881D02*
X036645Y034883D01*
X036578Y034889D01*
X036511Y034898D01*
X036445Y034911D01*
X036380Y034928D01*
X036316Y034948D01*
X036253Y034972D01*
X036191Y035000D01*
X036132Y035031D01*
X036074Y035065D01*
X036018Y035102D01*
X035964Y035143D01*
X035912Y035186D01*
X035863Y035232D01*
X035817Y035281D01*
X035774Y035333D01*
X035733Y035387D01*
X035696Y035443D01*
X035662Y035501D01*
X035631Y035560D01*
X035603Y035622D01*
X035579Y035685D01*
X035559Y035749D01*
X035542Y035814D01*
X035529Y035880D01*
X035520Y035947D01*
X035514Y036014D01*
X035512Y036081D01*
X035512Y038031D01*
X033712Y038031D02*
X033712Y035781D01*
X033710Y035747D01*
X033704Y035714D01*
X033695Y035682D01*
X033682Y035651D01*
X033666Y035621D01*
X033647Y035594D01*
X033624Y035569D01*
X033599Y035546D01*
X033572Y035527D01*
X033542Y035511D01*
X033511Y035498D01*
X033479Y035489D01*
X033446Y035483D01*
X033412Y035481D01*
X033378Y035483D01*
X033345Y035489D01*
X033313Y035498D01*
X033282Y035511D01*
X033252Y035527D01*
X033225Y035546D01*
X033200Y035569D01*
X033177Y035594D01*
X033158Y035621D01*
X033142Y035651D01*
X033129Y035682D01*
X033120Y035714D01*
X033114Y035747D01*
X033112Y035781D01*
X033112Y037031D01*
X031312Y037031D02*
X031312Y035781D01*
X031310Y035747D01*
X031304Y035714D01*
X031295Y035682D01*
X031282Y035651D01*
X031266Y035621D01*
X031247Y035594D01*
X031224Y035569D01*
X031199Y035546D01*
X031172Y035527D01*
X031142Y035511D01*
X031111Y035498D01*
X031079Y035489D01*
X031046Y035483D01*
X031012Y035481D01*
X030978Y035483D01*
X030945Y035489D01*
X030913Y035498D01*
X030882Y035511D01*
X030852Y035527D01*
X030825Y035546D01*
X030800Y035569D01*
X030777Y035594D01*
X030758Y035621D01*
X030742Y035651D01*
X030729Y035682D01*
X030720Y035714D01*
X030714Y035747D01*
X030712Y035781D01*
X030712Y038031D01*
X028912Y038031D02*
X028912Y035781D01*
X028910Y035747D01*
X028904Y035714D01*
X028895Y035682D01*
X028882Y035651D01*
X028866Y035621D01*
X028847Y035594D01*
X028824Y035569D01*
X028799Y035546D01*
X028772Y035527D01*
X028742Y035511D01*
X028711Y035498D01*
X028679Y035489D01*
X028646Y035483D01*
X028612Y035481D01*
X028578Y035483D01*
X028545Y035489D01*
X028513Y035498D01*
X028482Y035511D01*
X028452Y035527D01*
X028425Y035546D01*
X028400Y035569D01*
X028377Y035594D01*
X028358Y035621D01*
X028342Y035651D01*
X028329Y035682D01*
X028320Y035714D01*
X028314Y035747D01*
X028312Y035781D01*
X028312Y037031D01*
X026512Y037031D02*
X026512Y035781D01*
X026510Y035747D01*
X026504Y035714D01*
X026495Y035682D01*
X026482Y035651D01*
X026466Y035621D01*
X026447Y035594D01*
X026424Y035569D01*
X026399Y035546D01*
X026372Y035527D01*
X026342Y035511D01*
X026311Y035498D01*
X026279Y035489D01*
X026246Y035483D01*
X026212Y035481D01*
X026178Y035483D01*
X026145Y035489D01*
X026113Y035498D01*
X026082Y035511D01*
X026052Y035527D01*
X026025Y035546D01*
X026000Y035569D01*
X025977Y035594D01*
X025958Y035621D01*
X025942Y035651D01*
X025929Y035682D01*
X025920Y035714D01*
X025914Y035747D01*
X025912Y035781D01*
X025912Y038031D01*
X024112Y038031D02*
X024112Y036081D01*
X024110Y036014D01*
X024104Y035947D01*
X024095Y035880D01*
X024082Y035814D01*
X024065Y035749D01*
X024045Y035685D01*
X024021Y035622D01*
X023993Y035560D01*
X023962Y035501D01*
X023928Y035443D01*
X023891Y035387D01*
X023850Y035333D01*
X023807Y035281D01*
X023761Y035232D01*
X023712Y035186D01*
X023660Y035143D01*
X023606Y035102D01*
X023550Y035065D01*
X023492Y035031D01*
X023433Y035000D01*
X023371Y034972D01*
X023308Y034948D01*
X023244Y034928D01*
X023179Y034911D01*
X023113Y034898D01*
X023046Y034889D01*
X022979Y034883D01*
X022912Y034881D01*
X020962Y034881D01*
X020962Y033081D02*
X023212Y033081D01*
X023246Y033079D01*
X023279Y033073D01*
X023311Y033064D01*
X023342Y033051D01*
X023372Y033035D01*
X023399Y033016D01*
X023424Y032993D01*
X023447Y032968D01*
X023466Y032941D01*
X023482Y032911D01*
X023495Y032880D01*
X023504Y032848D01*
X023510Y032815D01*
X023512Y032781D01*
X023510Y032747D01*
X023504Y032714D01*
X023495Y032682D01*
X023482Y032651D01*
X023466Y032621D01*
X023447Y032594D01*
X023424Y032569D01*
X023399Y032546D01*
X023372Y032527D01*
X023342Y032511D01*
X023311Y032498D01*
X023279Y032489D01*
X023246Y032483D01*
X023212Y032481D01*
X021962Y032481D01*
X023717Y032759D02*
X025032Y027725D01*
X023212Y027681D02*
X021962Y027681D01*
X020962Y028281D02*
X023212Y028281D01*
X023246Y028279D01*
X023279Y028273D01*
X023311Y028264D01*
X023342Y028251D01*
X023372Y028235D01*
X023399Y028216D01*
X023424Y028193D01*
X023447Y028168D01*
X023466Y028141D01*
X023482Y028111D01*
X023495Y028080D01*
X023504Y028048D01*
X023510Y028015D01*
X023512Y027981D01*
X023510Y027947D01*
X023504Y027914D01*
X023495Y027882D01*
X023482Y027851D01*
X023466Y027821D01*
X023447Y027794D01*
X023424Y027769D01*
X023399Y027746D01*
X023372Y027727D01*
X023342Y027711D01*
X023311Y027698D01*
X023279Y027689D01*
X023246Y027683D01*
X023212Y027681D01*
X023212Y025881D02*
X021962Y025881D01*
X020962Y025281D02*
X023212Y025281D01*
X023246Y025283D01*
X023279Y025289D01*
X023311Y025298D01*
X023342Y025311D01*
X023372Y025327D01*
X023399Y025346D01*
X023424Y025369D01*
X023447Y025394D01*
X023466Y025421D01*
X023482Y025451D01*
X023495Y025482D01*
X023504Y025514D01*
X023510Y025547D01*
X023512Y025581D01*
X023510Y025615D01*
X023504Y025648D01*
X023495Y025680D01*
X023482Y025711D01*
X023466Y025741D01*
X023447Y025768D01*
X023424Y025793D01*
X023399Y025816D01*
X023372Y025835D01*
X023342Y025851D01*
X023311Y025864D01*
X023279Y025873D01*
X023246Y025879D01*
X023212Y025881D01*
X028518Y024352D02*
X033348Y023100D01*
X033162Y024981D02*
X033164Y025039D01*
X033170Y025097D01*
X033180Y025154D01*
X033194Y025210D01*
X033211Y025266D01*
X033232Y025320D01*
X033257Y025372D01*
X033286Y025423D01*
X033318Y025471D01*
X033353Y025517D01*
X033391Y025561D01*
X033432Y025602D01*
X033476Y025640D01*
X033522Y025675D01*
X033570Y025707D01*
X033621Y025736D01*
X033673Y025761D01*
X033727Y025782D01*
X033783Y025799D01*
X033839Y025813D01*
X033896Y025823D01*
X033954Y025829D01*
X034012Y025831D01*
X034070Y025829D01*
X034128Y025823D01*
X034185Y025813D01*
X034241Y025799D01*
X034297Y025782D01*
X034351Y025761D01*
X034403Y025736D01*
X034454Y025707D01*
X034502Y025675D01*
X034548Y025640D01*
X034592Y025602D01*
X034633Y025561D01*
X034671Y025517D01*
X034706Y025471D01*
X034738Y025423D01*
X034767Y025372D01*
X034792Y025320D01*
X034813Y025266D01*
X034830Y025210D01*
X034844Y025154D01*
X034854Y025097D01*
X034860Y025039D01*
X034862Y024981D01*
X034860Y024923D01*
X034854Y024865D01*
X034844Y024808D01*
X034830Y024752D01*
X034813Y024696D01*
X034792Y024642D01*
X034767Y024590D01*
X034738Y024539D01*
X034706Y024491D01*
X034671Y024445D01*
X034633Y024401D01*
X034592Y024360D01*
X034548Y024322D01*
X034502Y024287D01*
X034454Y024255D01*
X034403Y024226D01*
X034351Y024201D01*
X034297Y024180D01*
X034241Y024163D01*
X034185Y024149D01*
X034128Y024139D01*
X034070Y024133D01*
X034012Y024131D01*
X033954Y024133D01*
X033896Y024139D01*
X033839Y024149D01*
X033783Y024163D01*
X033727Y024180D01*
X033673Y024201D01*
X033621Y024226D01*
X033570Y024255D01*
X033522Y024287D01*
X033476Y024322D01*
X033432Y024360D01*
X033391Y024401D01*
X033353Y024445D01*
X033318Y024491D01*
X033286Y024539D01*
X033257Y024590D01*
X033232Y024642D01*
X033211Y024696D01*
X033194Y024752D01*
X033180Y024808D01*
X033170Y024865D01*
X033164Y024923D01*
X033162Y024981D01*
X033264Y023116D02*
X033363Y023092D01*
X033463Y023072D01*
X033564Y023058D01*
X033665Y023048D01*
X033766Y023043D01*
X033868Y023042D01*
X033970Y023047D01*
X034071Y023057D01*
X034171Y023071D01*
X034271Y023090D01*
X034370Y023114D01*
X034468Y023142D01*
X034564Y023175D01*
X034658Y023213D01*
X034751Y023255D01*
X034841Y023302D01*
X034929Y023352D01*
X035015Y023407D01*
X035098Y023466D01*
X035178Y023529D01*
X035255Y023596D01*
X035328Y023666D01*
X035397Y023738D01*
X035463Y023814D01*
X035525Y023893D01*
X035584Y023975D01*
X035638Y024059D01*
X035689Y024146D01*
X035735Y024235D01*
X035777Y024326D01*
X035815Y024419D01*
X035848Y024514D01*
X035877Y024610D01*
X035901Y024707D01*
X035920Y024806D01*
X035935Y024905D01*
X035945Y025005D01*
X035951Y025105D01*
X035952Y025206D01*
X035948Y025306D01*
X035939Y025406D01*
X035926Y025505D01*
X035908Y025604D01*
X035885Y025702D01*
X036412Y027681D02*
X037662Y027681D01*
X038662Y028281D02*
X036412Y028281D01*
X036378Y028279D01*
X036345Y028273D01*
X036313Y028264D01*
X036282Y028251D01*
X036252Y028235D01*
X036225Y028216D01*
X036200Y028193D01*
X036177Y028168D01*
X036158Y028141D01*
X036142Y028111D01*
X036129Y028080D01*
X036120Y028048D01*
X036114Y028015D01*
X036112Y027981D01*
X036114Y027947D01*
X036120Y027914D01*
X036129Y027882D01*
X036142Y027851D01*
X036158Y027821D01*
X036177Y027794D01*
X036200Y027769D01*
X036225Y027746D01*
X036252Y027727D01*
X036282Y027711D01*
X036313Y027698D01*
X036345Y027689D01*
X036378Y027683D01*
X036412Y027681D01*
X028527Y024349D02*
X028298Y024416D01*
X028072Y024493D01*
X027850Y024582D01*
X027633Y024681D01*
X027420Y024790D01*
X027214Y024909D01*
X027012Y025038D01*
X026818Y025177D01*
X026630Y025324D01*
X026449Y025481D01*
X026276Y025645D01*
X026108Y025823D01*
X025948Y026008D01*
X025797Y026201D01*
X025656Y026402D01*
X025525Y026609D01*
X025404Y026822D01*
X025293Y027040D01*
X025194Y027264D01*
X025106Y027493D01*
X025029Y027725D01*
X023212Y030081D02*
X020962Y030081D01*
X021962Y030681D02*
X023212Y030681D01*
X023246Y030679D01*
X023279Y030673D01*
X023311Y030664D01*
X023342Y030651D01*
X023372Y030635D01*
X023399Y030616D01*
X023424Y030593D01*
X023447Y030568D01*
X023466Y030541D01*
X023482Y030511D01*
X023495Y030480D01*
X023504Y030448D01*
X023510Y030415D01*
X023512Y030381D01*
X023510Y030347D01*
X023504Y030314D01*
X023495Y030282D01*
X023482Y030251D01*
X023466Y030221D01*
X023447Y030194D01*
X023424Y030169D01*
X023399Y030146D01*
X023372Y030127D01*
X023342Y030111D01*
X023311Y030098D01*
X023279Y030089D01*
X023246Y030083D01*
X023212Y030081D01*
X023721Y032743D02*
X023702Y032842D01*
X023688Y032942D01*
X023678Y033043D01*
X023674Y033144D01*
X023674Y033245D01*
X023679Y033346D01*
X023688Y033447D01*
X023703Y033547D01*
X023722Y033646D01*
X023746Y033745D01*
X023775Y033842D01*
X023808Y033937D01*
X023846Y034031D01*
X023888Y034123D01*
X023934Y034213D01*
X023985Y034301D01*
X024040Y034386D01*
X024098Y034468D01*
X024161Y034548D01*
X024227Y034624D01*
X024297Y034697D01*
X024762Y033381D02*
X024764Y033439D01*
X024770Y033497D01*
X024780Y033554D01*
X024794Y033610D01*
X024811Y033666D01*
X024832Y033720D01*
X024857Y033772D01*
X024886Y033823D01*
X024918Y033871D01*
X024953Y033917D01*
X024991Y033961D01*
X025032Y034002D01*
X025076Y034040D01*
X025122Y034075D01*
X025170Y034107D01*
X025221Y034136D01*
X025273Y034161D01*
X025327Y034182D01*
X025383Y034199D01*
X025439Y034213D01*
X025496Y034223D01*
X025554Y034229D01*
X025612Y034231D01*
X025670Y034229D01*
X025728Y034223D01*
X025785Y034213D01*
X025841Y034199D01*
X025897Y034182D01*
X025951Y034161D01*
X026003Y034136D01*
X026054Y034107D01*
X026102Y034075D01*
X026148Y034040D01*
X026192Y034002D01*
X026233Y033961D01*
X026271Y033917D01*
X026306Y033871D01*
X026338Y033823D01*
X026367Y033772D01*
X026392Y033720D01*
X026413Y033666D01*
X026430Y033610D01*
X026444Y033554D01*
X026454Y033497D01*
X026460Y033439D01*
X026462Y033381D01*
X026460Y033323D01*
X026454Y033265D01*
X026444Y033208D01*
X026430Y033152D01*
X026413Y033096D01*
X026392Y033042D01*
X026367Y032990D01*
X026338Y032939D01*
X026306Y032891D01*
X026271Y032845D01*
X026233Y032801D01*
X026192Y032760D01*
X026148Y032722D01*
X026102Y032687D01*
X026054Y032655D01*
X026003Y032626D01*
X025951Y032601D01*
X025897Y032580D01*
X025841Y032563D01*
X025785Y032549D01*
X025728Y032539D01*
X025670Y032533D01*
X025612Y032531D01*
X025554Y032533D01*
X025496Y032539D01*
X025439Y032549D01*
X025383Y032563D01*
X025327Y032580D01*
X025273Y032601D01*
X025221Y032626D01*
X025170Y032655D01*
X025122Y032687D01*
X025076Y032722D01*
X025032Y032760D01*
X024991Y032801D01*
X024953Y032845D01*
X024918Y032891D01*
X024886Y032939D01*
X024857Y032990D01*
X024832Y033042D01*
X024811Y033096D01*
X024794Y033152D01*
X024780Y033208D01*
X024770Y033265D01*
X024764Y033323D01*
X024762Y033381D01*
X024297Y034697D02*
X024370Y034767D01*
X024446Y034833D01*
X024526Y034896D01*
X024608Y034954D01*
X024693Y035009D01*
X024781Y035060D01*
X024871Y035106D01*
X024963Y035148D01*
X025057Y035186D01*
X025152Y035219D01*
X025249Y035248D01*
X025348Y035272D01*
X025447Y035291D01*
X025547Y035306D01*
X025648Y035315D01*
X025749Y035320D01*
X025850Y035320D01*
X025951Y035316D01*
X026052Y035306D01*
X026152Y035292D01*
X026251Y035273D01*
X026234Y035277D02*
X031099Y034018D01*
X033348Y032717D02*
X033516Y032539D01*
X033676Y032354D01*
X033827Y032161D01*
X033968Y031960D01*
X034099Y031753D01*
X034220Y031540D01*
X034331Y031322D01*
X034430Y031098D01*
X034518Y030869D01*
X034595Y030637D01*
X033348Y032717D02*
X033175Y032881D01*
X032994Y033038D01*
X032806Y033185D01*
X032612Y033324D01*
X032410Y033453D01*
X032203Y033572D01*
X031991Y033681D01*
X031774Y033780D01*
X031552Y033869D01*
X031326Y033946D01*
X031096Y034013D01*
X026122Y029181D02*
X026126Y029362D01*
X026140Y029543D01*
X026162Y029722D01*
X026193Y029901D01*
X026233Y030078D01*
X026281Y030252D01*
X026338Y030424D01*
X026403Y030593D01*
X026476Y030759D01*
X026558Y030920D01*
X026647Y031078D01*
X026744Y031231D01*
X026848Y031379D01*
X026960Y031522D01*
X027078Y031659D01*
X027203Y031790D01*
X027334Y031915D01*
X027471Y032033D01*
X027614Y032145D01*
X027762Y032249D01*
X027915Y032346D01*
X028073Y032435D01*
X028234Y032517D01*
X028400Y032590D01*
X028569Y032655D01*
X028741Y032712D01*
X028915Y032760D01*
X029092Y032800D01*
X029271Y032831D01*
X029450Y032853D01*
X029631Y032867D01*
X029812Y032871D01*
X029993Y032867D01*
X030174Y032853D01*
X030353Y032831D01*
X030532Y032800D01*
X030709Y032760D01*
X030883Y032712D01*
X031055Y032655D01*
X031224Y032590D01*
X031390Y032517D01*
X031551Y032435D01*
X031709Y032346D01*
X031862Y032249D01*
X032010Y032145D01*
X032153Y032033D01*
X032290Y031915D01*
X032421Y031790D01*
X032546Y031659D01*
X032664Y031522D01*
X032776Y031379D01*
X032880Y031231D01*
X032977Y031078D01*
X033066Y030920D01*
X033148Y030759D01*
X033221Y030593D01*
X033286Y030424D01*
X033343Y030252D01*
X033391Y030078D01*
X033431Y029901D01*
X033462Y029722D01*
X033484Y029543D01*
X033498Y029362D01*
X033502Y029181D01*
X033498Y029000D01*
X033484Y028819D01*
X033462Y028640D01*
X033431Y028461D01*
X033391Y028284D01*
X033343Y028110D01*
X033286Y027938D01*
X033221Y027769D01*
X033148Y027603D01*
X033066Y027442D01*
X032977Y027284D01*
X032880Y027131D01*
X032776Y026983D01*
X032664Y026840D01*
X032546Y026703D01*
X032421Y026572D01*
X032290Y026447D01*
X032153Y026329D01*
X032010Y026217D01*
X031862Y026113D01*
X031709Y026016D01*
X031551Y025927D01*
X031390Y025845D01*
X031224Y025772D01*
X031055Y025707D01*
X030883Y025650D01*
X030709Y025602D01*
X030532Y025562D01*
X030353Y025531D01*
X030174Y025509D01*
X029993Y025495D01*
X029812Y025491D01*
X029631Y025495D01*
X029450Y025509D01*
X029271Y025531D01*
X029092Y025562D01*
X028915Y025602D01*
X028741Y025650D01*
X028569Y025707D01*
X028400Y025772D01*
X028234Y025845D01*
X028073Y025927D01*
X027915Y026016D01*
X027762Y026113D01*
X027614Y026217D01*
X027471Y026329D01*
X027334Y026447D01*
X027203Y026572D01*
X027078Y026703D01*
X026960Y026840D01*
X026848Y026983D01*
X026744Y027131D01*
X026647Y027284D01*
X026558Y027442D01*
X026476Y027603D01*
X026403Y027769D01*
X026338Y027938D01*
X026281Y028110D01*
X026233Y028284D01*
X026193Y028461D01*
X026162Y028640D01*
X026140Y028819D01*
X026126Y029000D01*
X026122Y029181D01*
X010262Y028131D02*
X010212Y028181D01*
X009862Y028181D01*
X009862Y028161D01*
X010212Y028161D01*
X009862Y028181D02*
X009812Y028131D01*
X008412Y029331D02*
X008162Y029331D01*
X008112Y029381D01*
X005512Y029381D01*
X005462Y029331D01*
X005212Y029331D01*
X005195Y029333D01*
X005178Y029337D01*
X005162Y029344D01*
X005148Y029354D01*
X005135Y029367D01*
X005125Y029381D01*
X005118Y029397D01*
X005114Y029414D01*
X005112Y029431D01*
X005112Y030431D02*
X005114Y030448D01*
X005118Y030465D01*
X005125Y030481D01*
X005135Y030495D01*
X005148Y030508D01*
X005162Y030518D01*
X005178Y030525D01*
X005195Y030529D01*
X005212Y030531D01*
X005462Y030531D01*
X005512Y030481D01*
X008112Y030481D01*
X008162Y030531D01*
X008412Y030531D01*
X008429Y030529D01*
X008446Y030525D01*
X008462Y030518D01*
X008476Y030508D01*
X008489Y030495D01*
X008499Y030481D01*
X008506Y030465D01*
X008510Y030448D01*
X008512Y030431D01*
X008512Y029431D02*
X008510Y029414D01*
X008506Y029397D01*
X008499Y029381D01*
X008489Y029367D01*
X008476Y029354D01*
X008462Y029344D01*
X008446Y029337D01*
X008429Y029333D01*
X008412Y029331D01*
X006792Y031981D02*
X006412Y031981D01*
X006395Y031983D01*
X006378Y031987D01*
X006362Y031994D01*
X006348Y032004D01*
X006335Y032017D01*
X006325Y032031D01*
X006318Y032047D01*
X006314Y032064D01*
X006312Y032081D01*
X006312Y032872D01*
X006312Y033990D02*
X006312Y034781D01*
X006314Y034798D01*
X006318Y034815D01*
X006325Y034831D01*
X006335Y034845D01*
X006348Y034858D01*
X006362Y034868D01*
X006378Y034875D01*
X006395Y034879D01*
X006412Y034881D01*
X006792Y034881D01*
X008012Y034438D02*
X008012Y032425D01*
X008612Y032425D02*
X008612Y034438D01*
X010208Y032794D02*
X010174Y032702D01*
X010137Y032612D01*
X010094Y032524D01*
X010048Y032438D01*
X009997Y032354D01*
X009943Y032273D01*
X009884Y032195D01*
X009822Y032119D01*
X009756Y032047D01*
X009687Y031978D01*
X009614Y031913D01*
X009538Y031851D01*
X009460Y031793D01*
X009378Y031739D01*
X009294Y031689D01*
X009208Y031643D01*
X009119Y031601D01*
X009029Y031564D01*
X008937Y031531D01*
X008843Y031503D01*
X008748Y031479D01*
X008653Y031460D01*
X008556Y031446D01*
X008459Y031436D01*
X008361Y031432D01*
X008263Y031432D01*
X008165Y031436D01*
X008068Y031446D01*
X007971Y031460D01*
X007876Y031479D01*
X007781Y031503D01*
X007687Y031531D01*
X007595Y031564D01*
X007505Y031601D01*
X007416Y031643D01*
X007330Y031689D01*
X007246Y031739D01*
X007164Y031793D01*
X007086Y031851D01*
X007010Y031913D01*
X006937Y031978D01*
X006868Y032047D01*
X006802Y032119D01*
X006740Y032195D01*
X006681Y032273D01*
X006627Y032354D01*
X006576Y032438D01*
X006530Y032524D01*
X006487Y032612D01*
X006450Y032702D01*
X006416Y032794D01*
X006792Y031981D02*
X006864Y031909D01*
X006939Y031841D01*
X007017Y031776D01*
X007099Y031716D01*
X007183Y031659D01*
X007270Y031607D01*
X007359Y031558D01*
X007451Y031515D01*
X007544Y031475D01*
X007640Y031440D01*
X007737Y031410D01*
X007835Y031385D01*
X007934Y031364D01*
X008034Y031348D01*
X008135Y031337D01*
X008237Y031331D01*
X008338Y031330D01*
X008440Y031334D01*
X008541Y031342D01*
X008641Y031356D01*
X008741Y031374D01*
X008840Y031397D01*
X008938Y031425D01*
X009034Y031458D01*
X009128Y031495D01*
X009221Y031537D01*
X009311Y031583D01*
X009399Y031633D01*
X009485Y031688D01*
X009568Y031747D01*
X009648Y031809D01*
X009724Y031876D01*
X009798Y031946D01*
X009868Y032019D01*
X009934Y032096D01*
X009997Y032176D01*
X010055Y032259D01*
X010110Y032344D01*
X010160Y032432D01*
X010207Y032523D01*
X010248Y032615D01*
X010285Y032710D01*
X010318Y032806D01*
X010346Y032904D01*
X010016Y032709D02*
X009979Y032627D01*
X009938Y032547D01*
X009893Y032468D01*
X009844Y032393D01*
X009792Y032319D01*
X009736Y032248D01*
X009677Y032180D01*
X009614Y032115D01*
X009548Y032053D01*
X009480Y031995D01*
X009408Y031940D01*
X009334Y031888D01*
X009258Y031840D01*
X009179Y031796D01*
X009098Y031755D01*
X009016Y031719D01*
X008932Y031687D01*
X008846Y031659D01*
X008759Y031635D01*
X008671Y031615D01*
X008582Y031600D01*
X008492Y031589D01*
X008402Y031582D01*
X008312Y031580D01*
X008222Y031582D01*
X008132Y031589D01*
X008042Y031600D01*
X007953Y031615D01*
X007865Y031635D01*
X007778Y031659D01*
X007692Y031687D01*
X007608Y031719D01*
X007526Y031755D01*
X007445Y031796D01*
X007366Y031840D01*
X007290Y031888D01*
X007216Y031940D01*
X007144Y031995D01*
X007076Y032053D01*
X007010Y032115D01*
X006947Y032180D01*
X006888Y032248D01*
X006832Y032319D01*
X006780Y032393D01*
X006731Y032468D01*
X006686Y032547D01*
X006645Y032627D01*
X006608Y032709D01*
X006792Y034881D02*
X006864Y034953D01*
X006939Y035021D01*
X007017Y035086D01*
X007099Y035146D01*
X007183Y035203D01*
X007270Y035255D01*
X007359Y035304D01*
X007451Y035347D01*
X007544Y035387D01*
X007640Y035422D01*
X007737Y035452D01*
X007835Y035477D01*
X007934Y035498D01*
X008034Y035514D01*
X008135Y035525D01*
X008237Y035531D01*
X008338Y035532D01*
X008440Y035528D01*
X008541Y035520D01*
X008641Y035506D01*
X008741Y035488D01*
X008840Y035465D01*
X008938Y035437D01*
X009034Y035404D01*
X009128Y035367D01*
X009221Y035325D01*
X009311Y035279D01*
X009399Y035229D01*
X009485Y035174D01*
X009568Y035115D01*
X009648Y035053D01*
X009724Y034986D01*
X009798Y034916D01*
X009868Y034843D01*
X009934Y034766D01*
X009997Y034686D01*
X010055Y034603D01*
X010110Y034518D01*
X010160Y034430D01*
X010207Y034339D01*
X010248Y034247D01*
X010285Y034152D01*
X010318Y034056D01*
X010346Y033958D01*
X009242Y032944D02*
X009211Y032888D01*
X009176Y032835D01*
X009139Y032784D01*
X009098Y032735D01*
X009055Y032689D01*
X009009Y032645D01*
X008960Y032605D01*
X008909Y032567D01*
X008855Y032533D01*
X008800Y032501D01*
X008743Y032474D01*
X008685Y032449D01*
X008625Y032429D01*
X008563Y032412D01*
X008501Y032398D01*
X008439Y032389D01*
X008375Y032383D01*
X008312Y032381D01*
X008249Y032383D01*
X008185Y032389D01*
X008123Y032398D01*
X008061Y032412D01*
X007999Y032429D01*
X007939Y032449D01*
X007881Y032474D01*
X007824Y032501D01*
X007769Y032533D01*
X007715Y032567D01*
X007664Y032605D01*
X007615Y032645D01*
X007569Y032689D01*
X007526Y032735D01*
X007485Y032784D01*
X007448Y032835D01*
X007413Y032888D01*
X007382Y032944D01*
X007382Y033918D02*
X007413Y033974D01*
X007448Y034027D01*
X007485Y034078D01*
X007526Y034127D01*
X007569Y034173D01*
X007615Y034217D01*
X007664Y034257D01*
X007715Y034295D01*
X007769Y034329D01*
X007824Y034361D01*
X007881Y034388D01*
X007939Y034413D01*
X007999Y034433D01*
X008061Y034450D01*
X008123Y034464D01*
X008185Y034473D01*
X008249Y034479D01*
X008312Y034481D01*
X008375Y034479D01*
X008439Y034473D01*
X008501Y034464D01*
X008563Y034450D01*
X008625Y034433D01*
X008685Y034413D01*
X008743Y034388D01*
X008800Y034361D01*
X008855Y034329D01*
X008909Y034295D01*
X008960Y034257D01*
X009009Y034217D01*
X009055Y034173D01*
X009098Y034127D01*
X009139Y034078D01*
X009176Y034027D01*
X009211Y033974D01*
X009242Y033918D01*
X010016Y034153D02*
X009979Y034235D01*
X009938Y034315D01*
X009893Y034394D01*
X009844Y034469D01*
X009792Y034543D01*
X009736Y034614D01*
X009677Y034682D01*
X009614Y034747D01*
X009548Y034809D01*
X009480Y034867D01*
X009408Y034922D01*
X009334Y034974D01*
X009258Y035022D01*
X009179Y035066D01*
X009098Y035107D01*
X009016Y035143D01*
X008932Y035175D01*
X008846Y035203D01*
X008759Y035227D01*
X008671Y035247D01*
X008582Y035262D01*
X008492Y035273D01*
X008402Y035280D01*
X008312Y035282D01*
X008222Y035280D01*
X008132Y035273D01*
X008042Y035262D01*
X007953Y035247D01*
X007865Y035227D01*
X007778Y035203D01*
X007692Y035175D01*
X007608Y035143D01*
X007526Y035107D01*
X007445Y035066D01*
X007366Y035022D01*
X007290Y034974D01*
X007216Y034922D01*
X007144Y034867D01*
X007076Y034809D01*
X007010Y034747D01*
X006947Y034682D01*
X006888Y034614D01*
X006832Y034543D01*
X006780Y034469D01*
X006731Y034394D01*
X006686Y034315D01*
X006645Y034235D01*
X006608Y034153D01*
X006416Y034068D02*
X006450Y034160D01*
X006487Y034250D01*
X006530Y034338D01*
X006576Y034424D01*
X006627Y034508D01*
X006681Y034589D01*
X006740Y034667D01*
X006802Y034743D01*
X006868Y034815D01*
X006937Y034884D01*
X007010Y034949D01*
X007086Y035011D01*
X007164Y035069D01*
X007246Y035123D01*
X007330Y035173D01*
X007416Y035219D01*
X007505Y035261D01*
X007595Y035298D01*
X007687Y035331D01*
X007781Y035359D01*
X007876Y035383D01*
X007971Y035402D01*
X008068Y035416D01*
X008165Y035426D01*
X008263Y035430D01*
X008361Y035430D01*
X008459Y035426D01*
X008556Y035416D01*
X008653Y035402D01*
X008748Y035383D01*
X008843Y035359D01*
X008937Y035331D01*
X009029Y035298D01*
X009119Y035261D01*
X009208Y035219D01*
X009294Y035173D01*
X009378Y035123D01*
X009460Y035069D01*
X009538Y035011D01*
X009614Y034949D01*
X009687Y034884D01*
X009756Y034815D01*
X009822Y034743D01*
X009884Y034667D01*
X009943Y034589D01*
X009997Y034508D01*
X010048Y034424D01*
X010094Y034338D01*
X010137Y034250D01*
X010174Y034160D01*
X010208Y034068D01*
X002898Y033961D02*
X002471Y033961D01*
X002685Y033961D02*
X002685Y034602D01*
X002471Y034388D01*
X002254Y034602D02*
X002040Y034602D01*
X002147Y034602D02*
X002147Y034068D01*
X002040Y033961D01*
X001933Y033961D01*
X001827Y034068D01*
X001933Y036961D02*
X002040Y036961D01*
X002147Y037068D01*
X002147Y037602D01*
X002040Y037602D02*
X002254Y037602D01*
X002471Y037495D02*
X002578Y037602D01*
X002791Y037602D01*
X002898Y037495D01*
X002898Y037388D01*
X002791Y037282D01*
X002898Y037175D01*
X002898Y037068D01*
X002791Y036961D01*
X002578Y036961D01*
X002471Y037068D01*
X002685Y037282D02*
X002791Y037282D01*
X001933Y036961D02*
X001827Y037068D01*
X002812Y030531D02*
X002857Y030529D01*
X002903Y030524D01*
X002947Y030516D01*
X002991Y030504D01*
X003034Y030488D01*
X003076Y030470D01*
X003116Y030448D01*
X003154Y030424D01*
X003190Y030397D01*
X003225Y030367D01*
X003256Y030334D01*
X003286Y030299D01*
X002812Y030531D02*
X002767Y030529D01*
X002721Y030524D01*
X002677Y030516D01*
X002633Y030504D01*
X002590Y030488D01*
X002548Y030470D01*
X002508Y030448D01*
X002470Y030424D01*
X002434Y030397D01*
X002399Y030367D01*
X002368Y030334D01*
X002338Y030299D01*
X002812Y029331D02*
X002858Y029333D01*
X002904Y029338D01*
X002950Y029347D01*
X002995Y029359D01*
X003038Y029375D01*
X003080Y029394D01*
X003121Y029417D01*
X003160Y029442D01*
X003196Y029470D01*
X003231Y029501D01*
X003263Y029535D01*
X003292Y029571D01*
X002812Y029331D02*
X002765Y029333D01*
X002717Y029339D01*
X002671Y029348D01*
X002625Y029361D01*
X002581Y029377D01*
X002537Y029397D01*
X002496Y029421D01*
X002457Y029447D01*
X002420Y029477D01*
X002385Y029510D01*
X002353Y029545D01*
X002324Y029582D01*
X002812Y019531D02*
X002857Y019529D01*
X002903Y019524D01*
X002947Y019516D01*
X002991Y019504D01*
X003034Y019488D01*
X003076Y019470D01*
X003116Y019448D01*
X003154Y019424D01*
X003190Y019397D01*
X003225Y019367D01*
X003256Y019334D01*
X003286Y019299D01*
X002812Y019531D02*
X002767Y019529D01*
X002721Y019524D01*
X002677Y019516D01*
X002633Y019504D01*
X002590Y019488D01*
X002548Y019470D01*
X002508Y019448D01*
X002470Y019424D01*
X002434Y019397D01*
X002399Y019367D01*
X002368Y019334D01*
X002338Y019299D01*
X002812Y018331D02*
X002858Y018333D01*
X002904Y018338D01*
X002950Y018347D01*
X002995Y018359D01*
X003038Y018375D01*
X003080Y018394D01*
X003121Y018417D01*
X003160Y018442D01*
X003196Y018470D01*
X003231Y018501D01*
X003263Y018535D01*
X003292Y018571D01*
X002812Y018331D02*
X002765Y018333D01*
X002717Y018339D01*
X002671Y018348D01*
X002625Y018361D01*
X002581Y018377D01*
X002537Y018397D01*
X002496Y018421D01*
X002457Y018447D01*
X002420Y018477D01*
X002385Y018510D01*
X002353Y018545D01*
X002324Y018582D01*
X002254Y016352D02*
X002040Y016352D01*
X002147Y016352D02*
X002147Y015818D01*
X002040Y015711D01*
X001933Y015711D01*
X001827Y015818D01*
X002471Y015711D02*
X002898Y016138D01*
X002898Y016245D01*
X002791Y016352D01*
X002578Y016352D01*
X002471Y016245D01*
X002471Y015711D02*
X002898Y015711D01*
X016362Y011831D02*
X016362Y010531D01*
X016364Y010505D01*
X016369Y010479D01*
X016377Y010454D01*
X016389Y010431D01*
X016403Y010409D01*
X016421Y010390D01*
X016440Y010372D01*
X016462Y010358D01*
X016485Y010346D01*
X016510Y010338D01*
X016536Y010333D01*
X016562Y010331D01*
X016812Y010681D02*
X016812Y011061D01*
X016812Y011311D02*
X016812Y011681D01*
X016562Y012031D02*
X016536Y012029D01*
X016510Y012024D01*
X016485Y012016D01*
X016462Y012004D01*
X016440Y011990D01*
X016421Y011972D01*
X016403Y011953D01*
X016389Y011931D01*
X016377Y011908D01*
X016369Y011883D01*
X016364Y011857D01*
X016362Y011831D01*
X017062Y012031D02*
X017088Y012029D01*
X017114Y012024D01*
X017139Y012016D01*
X017162Y012004D01*
X017184Y011990D01*
X017203Y011972D01*
X017221Y011953D01*
X017235Y011931D01*
X017247Y011908D01*
X017255Y011883D01*
X017260Y011857D01*
X017262Y011831D01*
X017262Y010531D01*
X017260Y010505D01*
X017255Y010479D01*
X017247Y010454D01*
X017235Y010431D01*
X017221Y010409D01*
X017203Y010390D01*
X017184Y010372D01*
X017162Y010358D01*
X017139Y010346D01*
X017114Y010338D01*
X017088Y010333D01*
X017062Y010331D01*
X018812Y010281D02*
X018812Y009531D01*
X022812Y009531D01*
X022812Y011831D01*
X018812Y011831D01*
X018812Y011081D01*
X018851Y011079D01*
X018890Y011073D01*
X018928Y011064D01*
X018965Y011051D01*
X019001Y011034D01*
X019034Y011014D01*
X019066Y010990D01*
X019095Y010964D01*
X019121Y010935D01*
X019145Y010903D01*
X019165Y010870D01*
X019182Y010834D01*
X019195Y010797D01*
X019204Y010759D01*
X019210Y010720D01*
X019212Y010681D01*
X019210Y010642D01*
X019204Y010603D01*
X019195Y010565D01*
X019182Y010528D01*
X019165Y010492D01*
X019145Y010459D01*
X019121Y010427D01*
X019095Y010398D01*
X019066Y010372D01*
X019034Y010348D01*
X019001Y010328D01*
X018965Y010311D01*
X018928Y010298D01*
X018890Y010289D01*
X018851Y010283D01*
X018812Y010281D01*
X021812Y006081D02*
X021812Y005131D01*
X021812Y002531D01*
X021812Y002431D01*
X027812Y002431D01*
X027812Y002531D01*
X021812Y002531D01*
X022612Y003061D02*
X022614Y003089D01*
X022620Y003116D01*
X022629Y003142D01*
X022642Y003167D01*
X022659Y003190D01*
X022678Y003210D01*
X022700Y003227D01*
X022724Y003241D01*
X022750Y003251D01*
X022777Y003258D01*
X022805Y003261D01*
X022833Y003260D01*
X022860Y003255D01*
X022887Y003246D01*
X022912Y003234D01*
X022935Y003219D01*
X022956Y003200D01*
X022974Y003179D01*
X022989Y003155D01*
X023000Y003129D01*
X023008Y003103D01*
X023012Y003075D01*
X023012Y003047D01*
X023008Y003019D01*
X023000Y002993D01*
X022989Y002967D01*
X022974Y002943D01*
X022956Y002922D01*
X022935Y002903D01*
X022912Y002888D01*
X022887Y002876D01*
X022860Y002867D01*
X022833Y002862D01*
X022805Y002861D01*
X022777Y002864D01*
X022750Y002871D01*
X022724Y002881D01*
X022700Y002895D01*
X022678Y002912D01*
X022659Y002932D01*
X022642Y002955D01*
X022629Y002980D01*
X022620Y003006D01*
X022614Y003033D01*
X022612Y003061D01*
X024612Y003061D02*
X024614Y003089D01*
X024620Y003116D01*
X024629Y003142D01*
X024642Y003167D01*
X024659Y003190D01*
X024678Y003210D01*
X024700Y003227D01*
X024724Y003241D01*
X024750Y003251D01*
X024777Y003258D01*
X024805Y003261D01*
X024833Y003260D01*
X024860Y003255D01*
X024887Y003246D01*
X024912Y003234D01*
X024935Y003219D01*
X024956Y003200D01*
X024974Y003179D01*
X024989Y003155D01*
X025000Y003129D01*
X025008Y003103D01*
X025012Y003075D01*
X025012Y003047D01*
X025008Y003019D01*
X025000Y002993D01*
X024989Y002967D01*
X024974Y002943D01*
X024956Y002922D01*
X024935Y002903D01*
X024912Y002888D01*
X024887Y002876D01*
X024860Y002867D01*
X024833Y002862D01*
X024805Y002861D01*
X024777Y002864D01*
X024750Y002871D01*
X024724Y002881D01*
X024700Y002895D01*
X024678Y002912D01*
X024659Y002932D01*
X024642Y002955D01*
X024629Y002980D01*
X024620Y003006D01*
X024614Y003033D01*
X024612Y003061D01*
X026612Y003061D02*
X026614Y003089D01*
X026620Y003116D01*
X026629Y003142D01*
X026642Y003167D01*
X026659Y003190D01*
X026678Y003210D01*
X026700Y003227D01*
X026724Y003241D01*
X026750Y003251D01*
X026777Y003258D01*
X026805Y003261D01*
X026833Y003260D01*
X026860Y003255D01*
X026887Y003246D01*
X026912Y003234D01*
X026935Y003219D01*
X026956Y003200D01*
X026974Y003179D01*
X026989Y003155D01*
X027000Y003129D01*
X027008Y003103D01*
X027012Y003075D01*
X027012Y003047D01*
X027008Y003019D01*
X027000Y002993D01*
X026989Y002967D01*
X026974Y002943D01*
X026956Y002922D01*
X026935Y002903D01*
X026912Y002888D01*
X026887Y002876D01*
X026860Y002867D01*
X026833Y002862D01*
X026805Y002861D01*
X026777Y002864D01*
X026750Y002871D01*
X026724Y002881D01*
X026700Y002895D01*
X026678Y002912D01*
X026659Y002932D01*
X026642Y002955D01*
X026629Y002980D01*
X026620Y003006D01*
X026614Y003033D01*
X026612Y003061D01*
X027812Y002531D02*
X027812Y005131D01*
X027212Y005131D01*
X027812Y005131D02*
X027812Y006081D01*
X021812Y006081D01*
X021812Y005131D02*
X022412Y005131D01*
X023212Y005131D02*
X024412Y005131D01*
X025212Y005131D02*
X026412Y005131D01*
X030812Y005131D02*
X030812Y002531D01*
X030812Y002431D01*
X034812Y002431D01*
X034812Y002531D01*
X034812Y005131D01*
X034812Y006081D01*
X030812Y006081D01*
X030812Y005131D01*
X031462Y005131D01*
X032162Y005131D02*
X033462Y005131D01*
X034162Y005131D02*
X034812Y005131D01*
X033612Y003061D02*
X033614Y003089D01*
X033620Y003116D01*
X033629Y003142D01*
X033642Y003167D01*
X033659Y003190D01*
X033678Y003210D01*
X033700Y003227D01*
X033724Y003241D01*
X033750Y003251D01*
X033777Y003258D01*
X033805Y003261D01*
X033833Y003260D01*
X033860Y003255D01*
X033887Y003246D01*
X033912Y003234D01*
X033935Y003219D01*
X033956Y003200D01*
X033974Y003179D01*
X033989Y003155D01*
X034000Y003129D01*
X034008Y003103D01*
X034012Y003075D01*
X034012Y003047D01*
X034008Y003019D01*
X034000Y002993D01*
X033989Y002967D01*
X033974Y002943D01*
X033956Y002922D01*
X033935Y002903D01*
X033912Y002888D01*
X033887Y002876D01*
X033860Y002867D01*
X033833Y002862D01*
X033805Y002861D01*
X033777Y002864D01*
X033750Y002871D01*
X033724Y002881D01*
X033700Y002895D01*
X033678Y002912D01*
X033659Y002932D01*
X033642Y002955D01*
X033629Y002980D01*
X033620Y003006D01*
X033614Y003033D01*
X033612Y003061D01*
X034812Y002531D02*
X030812Y002531D01*
X031612Y003061D02*
X031614Y003089D01*
X031620Y003116D01*
X031629Y003142D01*
X031642Y003167D01*
X031659Y003190D01*
X031678Y003210D01*
X031700Y003227D01*
X031724Y003241D01*
X031750Y003251D01*
X031777Y003258D01*
X031805Y003261D01*
X031833Y003260D01*
X031860Y003255D01*
X031887Y003246D01*
X031912Y003234D01*
X031935Y003219D01*
X031956Y003200D01*
X031974Y003179D01*
X031989Y003155D01*
X032000Y003129D01*
X032008Y003103D01*
X032012Y003075D01*
X032012Y003047D01*
X032008Y003019D01*
X032000Y002993D01*
X031989Y002967D01*
X031974Y002943D01*
X031956Y002922D01*
X031935Y002903D01*
X031912Y002888D01*
X031887Y002876D01*
X031860Y002867D01*
X031833Y002862D01*
X031805Y002861D01*
X031777Y002864D01*
X031750Y002871D01*
X031724Y002881D01*
X031700Y002895D01*
X031678Y002912D01*
X031659Y002932D01*
X031642Y002955D01*
X031629Y002980D01*
X031620Y003006D01*
X031614Y003033D01*
X031612Y003061D01*
X028162Y013581D02*
X027912Y013581D01*
X027862Y013631D01*
X025262Y013631D01*
X025212Y013581D01*
X024962Y013581D01*
X024945Y013583D01*
X024928Y013587D01*
X024912Y013594D01*
X024898Y013604D01*
X024885Y013617D01*
X024875Y013631D01*
X024868Y013647D01*
X024864Y013664D01*
X024862Y013681D01*
X024862Y014681D02*
X024864Y014698D01*
X024868Y014715D01*
X024875Y014731D01*
X024885Y014745D01*
X024898Y014758D01*
X024912Y014768D01*
X024928Y014775D01*
X024945Y014779D01*
X024962Y014781D01*
X025212Y014781D01*
X025262Y014731D01*
X027862Y014731D01*
X027912Y014781D01*
X028162Y014781D01*
X028179Y014779D01*
X028196Y014775D01*
X028212Y014768D01*
X028226Y014758D01*
X028239Y014745D01*
X028249Y014731D01*
X028256Y014715D01*
X028260Y014698D01*
X028262Y014681D01*
X028262Y013681D02*
X028260Y013664D01*
X028256Y013647D01*
X028249Y013631D01*
X028239Y013617D01*
X028226Y013604D01*
X028212Y013594D01*
X028196Y013587D01*
X028179Y013583D01*
X028162Y013581D01*
X028512Y017181D02*
X028514Y017269D01*
X028521Y017357D01*
X028531Y017445D01*
X028547Y017532D01*
X028566Y017618D01*
X028590Y017704D01*
X028617Y017787D01*
X028649Y017870D01*
X028685Y017951D01*
X028725Y018030D01*
X028768Y018106D01*
X028815Y018181D01*
X028866Y018253D01*
X028921Y018323D01*
X028978Y018390D01*
X029039Y018454D01*
X029103Y018515D01*
X029170Y018572D01*
X029240Y018627D01*
X029312Y018678D01*
X029387Y018725D01*
X029463Y018768D01*
X029542Y018808D01*
X029623Y018844D01*
X029706Y018876D01*
X029789Y018903D01*
X029875Y018927D01*
X029961Y018946D01*
X030048Y018962D01*
X030136Y018972D01*
X030224Y018979D01*
X030312Y018981D01*
X030400Y018979D01*
X030488Y018972D01*
X030576Y018962D01*
X030663Y018946D01*
X030749Y018927D01*
X030835Y018903D01*
X030918Y018876D01*
X031001Y018844D01*
X031082Y018808D01*
X031161Y018768D01*
X031237Y018725D01*
X031312Y018678D01*
X031384Y018627D01*
X031454Y018572D01*
X031521Y018515D01*
X031585Y018454D01*
X031646Y018390D01*
X031703Y018323D01*
X031758Y018253D01*
X031809Y018181D01*
X031856Y018106D01*
X031899Y018030D01*
X031939Y017951D01*
X031975Y017870D01*
X032007Y017787D01*
X032034Y017704D01*
X032058Y017618D01*
X032077Y017532D01*
X032093Y017445D01*
X032103Y017357D01*
X032110Y017269D01*
X032112Y017181D01*
X032110Y017093D01*
X032103Y017005D01*
X032093Y016917D01*
X032077Y016830D01*
X032058Y016744D01*
X032034Y016658D01*
X032007Y016575D01*
X031975Y016492D01*
X031939Y016411D01*
X031899Y016332D01*
X031856Y016256D01*
X031809Y016181D01*
X031758Y016109D01*
X031703Y016039D01*
X031646Y015972D01*
X031585Y015908D01*
X031521Y015847D01*
X031454Y015790D01*
X031384Y015735D01*
X031312Y015684D01*
X031237Y015637D01*
X031161Y015594D01*
X031082Y015554D01*
X031001Y015518D01*
X030918Y015486D01*
X030835Y015459D01*
X030749Y015435D01*
X030663Y015416D01*
X030576Y015400D01*
X030488Y015390D01*
X030400Y015383D01*
X030312Y015381D01*
X030224Y015383D01*
X030136Y015390D01*
X030048Y015400D01*
X029961Y015416D01*
X029875Y015435D01*
X029789Y015459D01*
X029706Y015486D01*
X029623Y015518D01*
X029542Y015554D01*
X029463Y015594D01*
X029387Y015637D01*
X029312Y015684D01*
X029240Y015735D01*
X029170Y015790D01*
X029103Y015847D01*
X029039Y015908D01*
X028978Y015972D01*
X028921Y016039D01*
X028866Y016109D01*
X028815Y016181D01*
X028768Y016256D01*
X028725Y016332D01*
X028685Y016411D01*
X028649Y016492D01*
X028617Y016575D01*
X028590Y016658D01*
X028566Y016744D01*
X028547Y016830D01*
X028531Y016917D01*
X028521Y017005D01*
X028514Y017093D01*
X028512Y017181D01*
X028922Y018351D02*
X028712Y018561D01*
X028922Y018771D01*
X029132Y018561D01*
X048712Y015531D02*
X048962Y015531D01*
X049012Y015481D01*
X051612Y015481D01*
X051662Y015531D01*
X051912Y015531D01*
X051929Y015529D01*
X051946Y015525D01*
X051962Y015518D01*
X051976Y015508D01*
X051989Y015495D01*
X051999Y015481D01*
X052006Y015465D01*
X052010Y015448D01*
X052012Y015431D01*
X052012Y014431D02*
X052010Y014414D01*
X052006Y014397D01*
X051999Y014381D01*
X051989Y014367D01*
X051976Y014354D01*
X051962Y014344D01*
X051946Y014337D01*
X051929Y014333D01*
X051912Y014331D01*
X051662Y014331D01*
X051612Y014381D01*
X049012Y014381D01*
X048962Y014331D01*
X048712Y014331D01*
X048695Y014333D01*
X048678Y014337D01*
X048662Y014344D01*
X048648Y014354D01*
X048635Y014367D01*
X048625Y014381D01*
X048618Y014397D01*
X048614Y014414D01*
X048612Y014431D01*
X048612Y015431D02*
X048614Y015448D01*
X048618Y015465D01*
X048625Y015481D01*
X048635Y015495D01*
X048648Y015508D01*
X048662Y015518D01*
X048678Y015525D01*
X048695Y015529D01*
X048712Y015531D01*
X054176Y027511D02*
X054283Y027511D01*
X054389Y027618D01*
X054389Y028152D01*
X054283Y028152D02*
X054496Y028152D01*
X054714Y028152D02*
X054714Y027832D01*
X054927Y027938D01*
X055034Y027938D01*
X055141Y027832D01*
X055141Y027618D01*
X055034Y027511D01*
X054820Y027511D01*
X054714Y027618D01*
X054714Y028152D02*
X055141Y028152D01*
X054176Y027511D02*
X054069Y027618D01*
X053291Y033711D02*
X053291Y034352D01*
X052971Y034032D01*
X053398Y034032D01*
X052754Y034352D02*
X052540Y034352D01*
X052647Y034352D02*
X052647Y033818D01*
X052540Y033711D01*
X052433Y033711D01*
X052327Y033818D01*
D12*
X050431Y038091D02*
X040194Y038091D01*
X040194Y026595D01*
X050431Y026595D01*
X050431Y038091D01*
X020537Y025427D02*
X020537Y025127D01*
X020537Y025277D02*
X020087Y025277D01*
X020237Y025127D01*
X020087Y024967D02*
X020387Y024667D01*
X020312Y024742D02*
X020537Y024967D01*
X020537Y024667D02*
X020087Y024667D01*
X020087Y024507D02*
X020387Y024206D01*
X020312Y024281D02*
X020537Y024507D01*
X020537Y024206D02*
X020087Y024206D01*
X012907Y024146D02*
X012457Y024146D01*
X012607Y023996D01*
X012532Y023836D02*
X012457Y023761D01*
X012457Y023611D01*
X012532Y023536D01*
X012832Y023536D01*
X012907Y023611D01*
X012907Y023761D01*
X012832Y023836D01*
X012907Y023996D02*
X012907Y024296D01*
X012907Y023379D02*
X012907Y023229D01*
X012907Y023304D02*
X012457Y023304D01*
X012457Y023229D02*
X012457Y023379D01*
X009527Y022632D02*
X009227Y022632D01*
X009452Y022857D01*
X009452Y022406D01*
X009067Y022481D02*
X008992Y022406D01*
X008842Y022406D01*
X008767Y022481D01*
X008767Y022782D01*
X008842Y022857D01*
X008992Y022857D01*
X009067Y022782D01*
X008992Y020857D02*
X008842Y020857D01*
X008767Y020782D01*
X008767Y020481D01*
X008842Y020406D01*
X008992Y020406D01*
X009067Y020481D01*
X009227Y020481D02*
X009302Y020406D01*
X009452Y020406D01*
X009527Y020481D01*
X009527Y020632D01*
X009452Y020707D01*
X009377Y020707D01*
X009227Y020632D01*
X009227Y020857D01*
X009527Y020857D01*
X009067Y020782D02*
X008992Y020857D01*
X005948Y020082D02*
X005948Y020007D01*
X005873Y019932D01*
X005948Y019857D01*
X005948Y019781D01*
X005873Y019706D01*
X005723Y019706D01*
X005648Y019781D01*
X005488Y019706D02*
X005338Y019857D01*
X005413Y019857D02*
X005187Y019857D01*
X005187Y019706D02*
X005187Y020157D01*
X005413Y020157D01*
X005488Y020082D01*
X005488Y019932D01*
X005413Y019857D01*
X005648Y020082D02*
X005723Y020157D01*
X005873Y020157D01*
X005948Y020082D01*
X005873Y019932D02*
X005798Y019932D01*
X001927Y018682D02*
X001927Y018607D01*
X001852Y018532D01*
X001927Y018457D01*
X001927Y018381D01*
X001852Y018306D01*
X001702Y018306D01*
X001627Y018381D01*
X001467Y018381D02*
X001467Y018682D01*
X001392Y018757D01*
X001167Y018757D01*
X001167Y018306D01*
X001392Y018306D01*
X001467Y018381D01*
X001627Y018682D02*
X001702Y018757D01*
X001852Y018757D01*
X001927Y018682D01*
X001852Y018532D02*
X001777Y018532D01*
X001006Y018757D02*
X000706Y018757D01*
X000706Y018306D01*
X001006Y018306D01*
X000856Y018532D02*
X000706Y018532D01*
X000546Y018306D02*
X000246Y018306D01*
X000246Y018757D01*
X010537Y015971D02*
X010537Y015821D01*
X010612Y015746D01*
X010537Y015586D02*
X010537Y015286D01*
X010987Y015286D01*
X010762Y015286D02*
X010762Y015436D01*
X010987Y015746D02*
X010687Y016046D01*
X010612Y016046D01*
X010537Y015971D01*
X010987Y016046D02*
X010987Y015746D01*
X009023Y011657D02*
X008873Y011657D01*
X008798Y011582D01*
X008638Y011582D02*
X008563Y011657D01*
X008412Y011657D01*
X008337Y011582D01*
X008337Y011281D01*
X008412Y011206D01*
X008563Y011206D01*
X008638Y011281D01*
X008798Y011206D02*
X009098Y011507D01*
X009098Y011582D01*
X009023Y011657D01*
X009098Y011206D02*
X008798Y011206D01*
X007173Y009207D02*
X007248Y009132D01*
X007248Y009057D01*
X007173Y008982D01*
X007248Y008907D01*
X007248Y008831D01*
X007173Y008756D01*
X007023Y008756D01*
X006948Y008831D01*
X006788Y008831D02*
X006713Y008756D01*
X006562Y008756D01*
X006487Y008831D01*
X006487Y009132D01*
X006562Y009207D01*
X006713Y009207D01*
X006788Y009132D01*
X006948Y009132D02*
X007023Y009207D01*
X007173Y009207D01*
X007173Y008982D02*
X007098Y008982D01*
X002798Y005907D02*
X002798Y005456D01*
X002648Y005456D02*
X002948Y005456D01*
X002648Y005757D02*
X002798Y005907D01*
X002488Y005832D02*
X002488Y005682D01*
X002413Y005607D01*
X002187Y005607D01*
X002338Y005607D02*
X002488Y005456D01*
X002187Y005456D02*
X002187Y005907D01*
X002413Y005907D01*
X002488Y005832D01*
X008587Y005307D02*
X008587Y004856D01*
X008888Y004856D01*
X009048Y004856D02*
X009348Y004856D01*
X009508Y004856D02*
X009733Y004856D01*
X009808Y004931D01*
X009808Y005232D01*
X009733Y005307D01*
X009508Y005307D01*
X009508Y004856D01*
X009198Y005082D02*
X009048Y005082D01*
X009048Y005307D02*
X009048Y004856D01*
X009048Y005307D02*
X009348Y005307D01*
X009969Y005232D02*
X010044Y005307D01*
X010194Y005307D01*
X010269Y005232D01*
X010269Y005157D01*
X009969Y004856D01*
X010269Y004856D01*
X018237Y009556D02*
X018237Y009707D01*
X018237Y009631D02*
X018687Y009631D01*
X018687Y009556D02*
X018687Y009707D01*
X018612Y009863D02*
X018687Y009938D01*
X018687Y010088D01*
X018612Y010164D01*
X018687Y010324D02*
X018387Y010624D01*
X018312Y010624D01*
X018237Y010549D01*
X018237Y010399D01*
X018312Y010324D01*
X018312Y010164D02*
X018237Y010088D01*
X018237Y009938D01*
X018312Y009863D01*
X018612Y009863D01*
X018687Y010324D02*
X018687Y010624D01*
X016237Y010582D02*
X016162Y010657D01*
X016237Y010582D02*
X016237Y010431D01*
X016162Y010356D01*
X015862Y010356D01*
X015787Y010431D01*
X015787Y010582D01*
X015862Y010657D01*
X016012Y010817D02*
X016012Y011042D01*
X016087Y011117D01*
X016162Y011117D01*
X016237Y011042D01*
X016237Y010892D01*
X016162Y010817D01*
X016012Y010817D01*
X015862Y010967D01*
X015787Y011117D01*
X026417Y006857D02*
X026417Y006406D01*
X026417Y006557D02*
X026642Y006557D01*
X026717Y006632D01*
X026717Y006782D01*
X026642Y006857D01*
X026417Y006857D01*
X026877Y006782D02*
X026952Y006857D01*
X027102Y006857D01*
X027177Y006782D01*
X027177Y006707D01*
X026877Y006406D01*
X027177Y006406D01*
X033417Y005857D02*
X033417Y005406D01*
X033417Y005557D02*
X033642Y005557D01*
X033717Y005632D01*
X033717Y005782D01*
X033642Y005857D01*
X033417Y005857D01*
X033877Y005782D02*
X033952Y005857D01*
X034102Y005857D01*
X034177Y005782D01*
X034177Y005707D01*
X034102Y005632D01*
X034177Y005557D01*
X034177Y005481D01*
X034102Y005406D01*
X033952Y005406D01*
X033877Y005481D01*
X034027Y005632D02*
X034102Y005632D01*
X028002Y012956D02*
X028002Y013407D01*
X027777Y013182D01*
X028077Y013182D01*
X027617Y013182D02*
X027542Y013107D01*
X027317Y013107D01*
X027467Y013107D02*
X027617Y012956D01*
X027617Y013182D02*
X027617Y013332D01*
X027542Y013407D01*
X027317Y013407D01*
X027317Y012956D01*
X032337Y017286D02*
X032337Y017586D01*
X032337Y017436D02*
X032787Y017436D01*
X032787Y017746D02*
X032787Y018046D01*
X032787Y017896D02*
X032337Y017896D01*
X032487Y017746D01*
X051067Y014157D02*
X051067Y013706D01*
X051067Y013857D02*
X051292Y013857D01*
X051367Y013932D01*
X051367Y014082D01*
X051292Y014157D01*
X051067Y014157D01*
X051217Y013857D02*
X051367Y013706D01*
X051527Y013781D02*
X051602Y013706D01*
X051752Y013706D01*
X051827Y013781D01*
X051827Y013932D01*
X051752Y014007D01*
X051677Y014007D01*
X051527Y013932D01*
X051527Y014157D01*
X051827Y014157D01*
X010987Y033536D02*
X010537Y033536D01*
X010537Y033836D01*
X010687Y033996D02*
X010537Y034146D01*
X010987Y034146D01*
X010987Y033996D02*
X010987Y034296D01*
X010762Y033686D02*
X010762Y033536D01*
X005948Y031082D02*
X005873Y031157D01*
X005723Y031157D01*
X005648Y031082D01*
X005488Y031082D02*
X005488Y030932D01*
X005413Y030857D01*
X005187Y030857D01*
X005338Y030857D02*
X005488Y030706D01*
X005648Y030706D02*
X005948Y031007D01*
X005948Y031082D01*
X005948Y030706D02*
X005648Y030706D01*
X005488Y031082D02*
X005413Y031157D01*
X005187Y031157D01*
X005187Y030706D01*
X001777Y029757D02*
X001777Y029306D01*
X001627Y029306D02*
X001927Y029306D01*
X001627Y029607D02*
X001777Y029757D01*
X001467Y029682D02*
X001392Y029757D01*
X001167Y029757D01*
X001167Y029306D01*
X001392Y029306D01*
X001467Y029381D01*
X001467Y029682D01*
X001006Y029757D02*
X000706Y029757D01*
X000706Y029306D01*
X001006Y029306D01*
X000856Y029532D02*
X000706Y029532D01*
X000546Y029306D02*
X000246Y029306D01*
X000246Y029757D01*
D13*
X008908Y024392D02*
X008908Y023971D01*
X009013Y023866D01*
X009224Y023866D01*
X009329Y023971D01*
X009553Y023866D02*
X009973Y023866D01*
X009763Y023866D02*
X009763Y024497D01*
X009553Y024287D01*
X009329Y024392D02*
X009224Y024497D01*
X009013Y024497D01*
X008908Y024392D01*
X029024Y029610D02*
X029322Y029313D01*
X029470Y029313D01*
X029619Y029461D01*
X029619Y029610D01*
X029322Y029907D01*
X029173Y029907D01*
X029024Y029759D01*
X029024Y029610D01*
X029396Y029536D02*
X029693Y029536D01*
X029852Y029694D02*
X030149Y029992D01*
X030000Y029843D02*
X029554Y030289D01*
X029554Y029992D01*
D14*
X010212Y024731D02*
X009862Y024731D01*
X009712Y024831D02*
X009512Y024831D01*
X009362Y024731D02*
X002412Y024731D01*
X008682Y023731D02*
X008682Y023431D01*
X008682Y023131D01*
X008932Y023131D02*
X008932Y023431D01*
X008932Y023731D01*
X008932Y021731D02*
X008932Y021431D01*
X008932Y021131D01*
X008682Y021131D02*
X008682Y021431D01*
X008682Y021731D01*
X016512Y011311D02*
X016812Y011311D01*
X017112Y011311D01*
X017112Y011061D02*
X016812Y011061D01*
X016512Y011061D01*
X007442Y008481D02*
X007442Y008181D01*
X007442Y007881D01*
X007192Y007881D02*
X007192Y008181D01*
X007192Y008481D01*
D15*
X008312Y026431D03*
D16*
X010487Y026431D03*
X002137Y026431D03*
D17*
X007512Y010681D03*
D18*
X007117Y004284D02*
X007147Y004236D01*
X007180Y004191D01*
X007216Y004148D01*
X007254Y004107D01*
X007296Y004070D01*
X007340Y004035D01*
X007386Y004004D01*
X007435Y003975D01*
X007485Y003951D01*
X007537Y003930D01*
X007591Y003912D01*
X007645Y003899D01*
X007700Y003889D01*
X007756Y003883D01*
X007812Y003881D01*
X007865Y003883D01*
X007919Y003888D01*
X007971Y003897D01*
X008023Y003909D01*
X008074Y003925D01*
X008124Y003944D01*
X008173Y003967D01*
X008220Y003993D01*
X008265Y004021D01*
X008308Y004053D01*
X008348Y004087D01*
X008387Y004125D01*
X008423Y004164D01*
X007812Y005481D02*
X007758Y005479D01*
X007704Y005474D01*
X007651Y005465D01*
X007598Y005452D01*
X007547Y005436D01*
X007497Y005416D01*
X007448Y005393D01*
X007400Y005367D01*
X007355Y005338D01*
X007312Y005305D01*
X007271Y005270D01*
X007232Y005232D01*
X007196Y005192D01*
X007163Y005149D01*
X007133Y005104D01*
X007106Y005057D01*
X007812Y005481D02*
X007866Y005479D01*
X007919Y005474D01*
X007973Y005465D01*
X008025Y005452D01*
X008076Y005436D01*
X008127Y005416D01*
X008176Y005394D01*
X008223Y005368D01*
X008268Y005338D01*
X008311Y005306D01*
X008352Y005271D01*
X008391Y005233D01*
X008427Y005193D01*
X003507Y019328D02*
X003477Y019376D01*
X003444Y019421D01*
X003408Y019464D01*
X003370Y019505D01*
X003328Y019542D01*
X003284Y019577D01*
X003238Y019608D01*
X003189Y019637D01*
X003139Y019661D01*
X003087Y019682D01*
X003033Y019700D01*
X002979Y019713D01*
X002924Y019723D01*
X002868Y019729D01*
X002812Y019731D01*
X002759Y019729D01*
X002705Y019724D01*
X002653Y019715D01*
X002601Y019703D01*
X002550Y019687D01*
X002500Y019668D01*
X002451Y019645D01*
X002404Y019619D01*
X002359Y019591D01*
X002316Y019559D01*
X002276Y019525D01*
X002237Y019487D01*
X002201Y019448D01*
X002812Y018131D02*
X002866Y018133D01*
X002920Y018138D01*
X002973Y018147D01*
X003026Y018160D01*
X003077Y018176D01*
X003127Y018196D01*
X003176Y018219D01*
X003224Y018245D01*
X003269Y018274D01*
X003312Y018307D01*
X003353Y018342D01*
X003392Y018380D01*
X003428Y018420D01*
X003461Y018463D01*
X003491Y018508D01*
X003518Y018555D01*
X002812Y018131D02*
X002758Y018133D01*
X002705Y018138D01*
X002651Y018147D01*
X002599Y018160D01*
X002548Y018176D01*
X002497Y018196D01*
X002448Y018218D01*
X002401Y018244D01*
X002356Y018274D01*
X002313Y018306D01*
X002272Y018341D01*
X002233Y018379D01*
X002197Y018419D01*
X003507Y030328D02*
X003477Y030376D01*
X003444Y030421D01*
X003408Y030464D01*
X003370Y030505D01*
X003328Y030542D01*
X003284Y030577D01*
X003238Y030608D01*
X003189Y030637D01*
X003139Y030661D01*
X003087Y030682D01*
X003033Y030700D01*
X002979Y030713D01*
X002924Y030723D01*
X002868Y030729D01*
X002812Y030731D01*
X002759Y030729D01*
X002705Y030724D01*
X002653Y030715D01*
X002601Y030703D01*
X002550Y030687D01*
X002500Y030668D01*
X002451Y030645D01*
X002404Y030619D01*
X002359Y030591D01*
X002316Y030559D01*
X002276Y030525D01*
X002237Y030487D01*
X002201Y030448D01*
X002812Y029131D02*
X002866Y029133D01*
X002920Y029138D01*
X002973Y029147D01*
X003026Y029160D01*
X003077Y029176D01*
X003127Y029196D01*
X003176Y029219D01*
X003224Y029245D01*
X003269Y029274D01*
X003312Y029307D01*
X003353Y029342D01*
X003392Y029380D01*
X003428Y029420D01*
X003461Y029463D01*
X003491Y029508D01*
X003518Y029555D01*
X002812Y029131D02*
X002758Y029133D01*
X002705Y029138D01*
X002651Y029147D01*
X002599Y029160D01*
X002548Y029176D01*
X002497Y029196D01*
X002448Y029218D01*
X002401Y029244D01*
X002356Y029274D01*
X002313Y029306D01*
X002272Y029341D01*
X002233Y029379D01*
X002197Y029419D01*
D19*
X013352Y024251D03*
D20*
X014562Y024156D03*
X014562Y020706D03*
D21*
X014662Y021431D03*
X014662Y022431D03*
X014662Y023431D03*
D22*
X014562Y022931D03*
X014562Y021931D03*
D23*
X025212Y029181D02*
X025218Y029407D01*
X025234Y029632D01*
X025262Y029856D01*
X025300Y030078D01*
X025350Y030299D01*
X025410Y030516D01*
X025481Y030731D01*
X025562Y030941D01*
X025654Y031148D01*
X025755Y031349D01*
X025866Y031546D01*
X025987Y031737D01*
X026117Y031921D01*
X026256Y032099D01*
X026404Y032270D01*
X026559Y032434D01*
X026723Y032589D01*
X026894Y032737D01*
X027072Y032876D01*
X027256Y033006D01*
X027447Y033127D01*
X027644Y033238D01*
X027845Y033339D01*
X028052Y033431D01*
X028262Y033512D01*
X028477Y033583D01*
X028694Y033643D01*
X028915Y033693D01*
X029137Y033731D01*
X029361Y033759D01*
X029586Y033775D01*
X029812Y033781D01*
X030038Y033775D01*
X030263Y033759D01*
X030487Y033731D01*
X030709Y033693D01*
X030930Y033643D01*
X031147Y033583D01*
X031362Y033512D01*
X031572Y033431D01*
X031779Y033339D01*
X031980Y033238D01*
X032177Y033127D01*
X032368Y033006D01*
X032552Y032876D01*
X032730Y032737D01*
X032901Y032589D01*
X033065Y032434D01*
X033220Y032270D01*
X033368Y032099D01*
X033507Y031921D01*
X033637Y031737D01*
X033758Y031546D01*
X033869Y031349D01*
X033970Y031148D01*
X034062Y030941D01*
X034143Y030731D01*
X034214Y030516D01*
X034274Y030299D01*
X034324Y030078D01*
X034362Y029856D01*
X034390Y029632D01*
X034406Y029407D01*
X034412Y029181D01*
X034406Y028955D01*
X034390Y028730D01*
X034362Y028506D01*
X034324Y028284D01*
X034274Y028063D01*
X034214Y027846D01*
X034143Y027631D01*
X034062Y027421D01*
X033970Y027214D01*
X033869Y027013D01*
X033758Y026816D01*
X033637Y026625D01*
X033507Y026441D01*
X033368Y026263D01*
X033220Y026092D01*
X033065Y025928D01*
X032901Y025773D01*
X032730Y025625D01*
X032552Y025486D01*
X032368Y025356D01*
X032177Y025235D01*
X031980Y025124D01*
X031779Y025023D01*
X031572Y024931D01*
X031362Y024850D01*
X031147Y024779D01*
X030930Y024719D01*
X030709Y024669D01*
X030487Y024631D01*
X030263Y024603D01*
X030038Y024587D01*
X029812Y024581D01*
X029586Y024587D01*
X029361Y024603D01*
X029137Y024631D01*
X028915Y024669D01*
X028694Y024719D01*
X028477Y024779D01*
X028262Y024850D01*
X028052Y024931D01*
X027845Y025023D01*
X027644Y025124D01*
X027447Y025235D01*
X027256Y025356D01*
X027072Y025486D01*
X026894Y025625D01*
X026723Y025773D01*
X026559Y025928D01*
X026404Y026092D01*
X026256Y026263D01*
X026117Y026441D01*
X025987Y026625D01*
X025866Y026816D01*
X025755Y027013D01*
X025654Y027214D01*
X025562Y027421D01*
X025481Y027631D01*
X025410Y027846D01*
X025350Y028063D01*
X025300Y028284D01*
X025262Y028506D01*
X025234Y028730D01*
X025218Y028955D01*
X025212Y029181D01*
X028792Y017181D02*
X028794Y017259D01*
X028800Y017336D01*
X028810Y017413D01*
X028824Y017489D01*
X028841Y017565D01*
X028863Y017640D01*
X028888Y017713D01*
X028917Y017785D01*
X028950Y017855D01*
X028986Y017924D01*
X029026Y017991D01*
X029069Y018055D01*
X029115Y018118D01*
X029164Y018178D01*
X029217Y018235D01*
X029272Y018290D01*
X029330Y018341D01*
X029391Y018390D01*
X029453Y018435D01*
X029519Y018478D01*
X029586Y018516D01*
X029655Y018552D01*
X029726Y018583D01*
X029798Y018612D01*
X029872Y018636D01*
X029947Y018656D01*
X030023Y018673D01*
X030099Y018686D01*
X030176Y018695D01*
X030254Y018700D01*
X030331Y018701D01*
X030409Y018698D01*
X030486Y018691D01*
X030563Y018680D01*
X030639Y018665D01*
X030715Y018647D01*
X030789Y018624D01*
X030862Y018598D01*
X030934Y018568D01*
X031004Y018534D01*
X031072Y018497D01*
X031138Y018457D01*
X031202Y018413D01*
X031264Y018366D01*
X031323Y018316D01*
X031380Y018263D01*
X031434Y018207D01*
X031485Y018148D01*
X031533Y018087D01*
X031577Y018023D01*
X031619Y017958D01*
X031657Y017890D01*
X031691Y017820D01*
X031722Y017749D01*
X031749Y017676D01*
X031772Y017602D01*
X031792Y017527D01*
X031808Y017451D01*
X031820Y017375D01*
X031828Y017297D01*
X031832Y017220D01*
X031832Y017142D01*
X031828Y017065D01*
X031820Y016987D01*
X031808Y016911D01*
X031792Y016835D01*
X031772Y016760D01*
X031749Y016686D01*
X031722Y016613D01*
X031691Y016542D01*
X031657Y016472D01*
X031619Y016404D01*
X031577Y016339D01*
X031533Y016275D01*
X031485Y016214D01*
X031434Y016155D01*
X031380Y016099D01*
X031323Y016046D01*
X031264Y015996D01*
X031202Y015949D01*
X031138Y015905D01*
X031072Y015865D01*
X031004Y015828D01*
X030934Y015794D01*
X030862Y015764D01*
X030789Y015738D01*
X030715Y015715D01*
X030639Y015697D01*
X030563Y015682D01*
X030486Y015671D01*
X030409Y015664D01*
X030331Y015661D01*
X030254Y015662D01*
X030176Y015667D01*
X030099Y015676D01*
X030023Y015689D01*
X029947Y015706D01*
X029872Y015726D01*
X029798Y015750D01*
X029726Y015779D01*
X029655Y015810D01*
X029586Y015846D01*
X029519Y015884D01*
X029453Y015927D01*
X029391Y015972D01*
X029330Y016021D01*
X029272Y016072D01*
X029217Y016127D01*
X029164Y016184D01*
X029115Y016244D01*
X029069Y016307D01*
X029026Y016371D01*
X028986Y016438D01*
X028950Y016507D01*
X028917Y016577D01*
X028888Y016649D01*
X028863Y016722D01*
X028841Y016797D01*
X028824Y016873D01*
X028810Y016949D01*
X028800Y017026D01*
X028794Y017103D01*
X028792Y017181D01*
D24*
X038986Y009847D02*
X040797Y009847D01*
X040797Y008863D01*
X040127Y008863D01*
X040127Y007819D01*
X039655Y007819D01*
X039655Y008863D01*
X040127Y008863D01*
X040423Y009059D02*
X040423Y009650D01*
X039360Y009650D01*
X039360Y009059D01*
X040423Y009059D01*
X040954Y008863D02*
X041623Y008863D01*
X041623Y007819D01*
X042096Y007819D01*
X042096Y008863D01*
X042765Y008863D01*
X042765Y009847D01*
X040954Y009847D01*
X040954Y008863D01*
X041328Y009059D02*
X042391Y009059D01*
X042391Y009650D01*
X041328Y009650D01*
X041328Y009059D01*
X041623Y008863D02*
X042096Y008863D01*
X042923Y008863D02*
X043592Y008863D01*
X043592Y007819D01*
X044064Y007819D01*
X044064Y008863D01*
X044734Y008863D01*
X044734Y009847D01*
X042923Y009847D01*
X042923Y008863D01*
X043297Y009059D02*
X044360Y009059D01*
X044360Y009650D01*
X043297Y009650D01*
X043297Y009059D01*
X043592Y008863D02*
X044064Y008863D01*
X044891Y008863D02*
X045560Y008863D01*
X045560Y007819D01*
X046033Y007819D01*
X046033Y008863D01*
X046702Y008863D01*
X046702Y009847D01*
X044891Y009847D01*
X044891Y008863D01*
X045265Y009059D02*
X046328Y009059D01*
X046328Y009650D01*
X045265Y009650D01*
X045265Y009059D01*
X045560Y008863D02*
X046033Y008863D01*
X046860Y008863D02*
X047529Y008863D01*
X047529Y007819D01*
X048001Y007819D01*
X048001Y008863D01*
X048671Y008863D01*
X048671Y009847D01*
X046860Y009847D01*
X046860Y008863D01*
X047234Y009059D02*
X048297Y009059D01*
X048297Y009650D01*
X047234Y009650D01*
X047234Y009059D01*
X047529Y008863D02*
X048001Y008863D01*
X048828Y008863D02*
X049497Y008863D01*
X049497Y007819D01*
X049970Y007819D01*
X049970Y008863D01*
X050639Y008863D01*
X050639Y009847D01*
X048828Y009847D01*
X048828Y008863D01*
X049202Y009059D02*
X050265Y009059D01*
X050265Y009650D01*
X049202Y009650D01*
X049202Y009059D01*
X049497Y008863D02*
X049970Y008863D01*
X049980Y008164D02*
X051358Y008164D01*
X051368Y008154D02*
X051368Y007957D01*
X051230Y007957D01*
X051230Y007563D01*
X051368Y007563D01*
X051368Y004965D01*
X051230Y004965D01*
X051230Y004256D01*
X051368Y004256D01*
X051368Y003744D01*
X050698Y003744D01*
X051230Y003469D02*
X051230Y003075D01*
X051368Y003075D01*
X051368Y002740D01*
X050757Y002740D01*
X050757Y006225D01*
X050757Y008154D01*
X050679Y008154D02*
X050679Y006225D01*
X050679Y002740D01*
X050757Y002740D01*
X051230Y003469D02*
X051368Y003469D01*
X051368Y003744D01*
X048789Y002740D02*
X048789Y006225D01*
X048789Y008154D01*
X048710Y008154D02*
X048710Y006225D01*
X048710Y002740D01*
X046820Y002740D02*
X046820Y006225D01*
X048710Y006225D01*
X048789Y006225D01*
X050679Y006225D02*
X050757Y006225D01*
X051348Y006225D01*
X050679Y006225D02*
X044773Y006225D01*
X044773Y002740D01*
X044852Y002740D02*
X044852Y006225D01*
X046742Y006225D01*
X046742Y002740D01*
X042883Y002740D02*
X042883Y006225D01*
X042883Y008154D01*
X042805Y008154D02*
X042805Y006225D01*
X042883Y006225D01*
X044773Y006225D01*
X044773Y008154D01*
X044852Y008154D02*
X044852Y006225D01*
X044773Y006225D01*
X042805Y006225D02*
X040915Y006225D01*
X040915Y002740D01*
X040836Y002740D02*
X040836Y006225D01*
X038651Y006225D01*
X038631Y004965D02*
X038494Y004965D01*
X038494Y004256D01*
X038631Y004256D01*
X038631Y003469D01*
X038494Y003469D01*
X038494Y003075D01*
X038631Y003075D01*
X038631Y002740D01*
X038887Y002740D01*
X038887Y008154D01*
X038966Y008154D02*
X038966Y002740D01*
X038887Y002740D01*
X038907Y003744D02*
X038631Y003744D01*
X038631Y004965D02*
X038631Y007563D01*
X038494Y007563D01*
X038494Y007957D01*
X038631Y007957D01*
X038631Y008164D01*
X039645Y008164D01*
X040157Y008164D02*
X041614Y008164D01*
X042106Y008164D02*
X043582Y008164D01*
X044074Y008164D02*
X045551Y008164D01*
X046043Y008164D02*
X047519Y008164D01*
X048011Y008164D02*
X049488Y008164D01*
X046820Y008154D02*
X046820Y006225D01*
X046742Y006225D01*
X046742Y008154D01*
X042805Y006225D02*
X042805Y002740D01*
X040915Y006225D02*
X040915Y008154D01*
X040836Y008154D02*
X040836Y006225D01*
X039655Y008863D02*
X038986Y008863D01*
X038986Y009847D01*
D25*
X039904Y006018D02*
X039904Y005728D01*
X039808Y005728D02*
X040001Y005728D01*
X039808Y005921D02*
X039904Y006018D01*
D26*
X038283Y003587D02*
X037822Y003587D01*
X038052Y003357D01*
X038052Y003664D01*
X038052Y003203D02*
X037899Y003203D01*
X037822Y003126D01*
X037822Y002896D01*
X038283Y002896D01*
X038129Y002896D02*
X038129Y003126D01*
X038052Y003203D01*
D27*
X034612Y020781D03*
X032212Y021781D03*
X029812Y020781D03*
X027412Y021781D03*
X025012Y020781D03*
X027412Y036581D03*
X025012Y037581D03*
X029812Y037581D03*
X032212Y036581D03*
X034612Y037581D03*
D28*
X038212Y033981D03*
X037212Y031581D03*
X038212Y029181D03*
X037212Y026781D03*
X038212Y024381D03*
X022412Y026781D03*
X021412Y024381D03*
X021412Y029181D03*
X022412Y031581D03*
X021412Y033981D03*
M02*
